<?xml version="1.0" encoding="UTF-8"?>
<svg id="Layer_1" data-name="Layer 1" xmlns="http://www.w3.org/2000/svg" viewBox="0 0 2462.73 520.58">
  <defs>
    <style>
      .cls-1 {
        fill: #eaeaec;
      }

      .cls-2 {
        fill: #e1142d;
      }

      .cls-3 {
        fill: #26242a;
      }
    </style>
  </defs>
  <path class="cls-2" d="M0,0h1283.52v58.55l-36.04-.05v399.77l36.04-.06v62.37H0V0Z"/>
  <path class="cls-3" d="M335.48,59.62h104.81l64.34,270.64c25.39-85.31,49.27-183.72,72.59-270.64h101.29c21.75,88.37,49.24,183.07,73.17,271.43,18.73-87.01,43.91-184.46,65.63-271.43h101.05l-30.81,108.42c-9.8,29.65-19.78,68.62-28.53,99.24l-55.69,194.78h-96.18c-24.6-90.1-53.48-184.63-80.15-274.49-28,87.94-54.42,185.37-80.47,274.49h-96.61c-40.08-130.03-76.37-270.67-114.44-402.44Z"/>
  <path class="cls-3" d="M1079.32,50.57c57.74-6.93,110.97,11.71,155.14,48.29l-62.07,65.41c-17.56-20.03-48.74-36.85-74.92-34.13-83.24,8.65-63.18,69.25,4.07,85.79,61.49,18.61,129.33,43.59,129.73,119.21.5,94.68-68.15,135.13-154.56,137.01-60.19-.83-105.58-17.42-150.05-57.51l63.63-65.03c25.9,28.82,56.44,43.32,95.48,42.14,26.44-.8,51.47-19.06,47.28-47.3-5.6-37.78-67.99-45.45-97.19-58.36-16.76-7.42-32.05-12.23-46.71-23.8-26.1-18.84-40.09-44.39-42.02-76.47-5.12-85.08,55.55-125.14,132.19-135.25Z"/>
  <path class="cls-3" d="M49.46,59.62h265.11v82.9h-168.95v83.1h155.84v72.82l-.71,4.91c-8.07,4.48-135.48,2.5-155.14,2.45v156.26H49.45V59.62Z"/>
  <path class="cls-1" d="M1854.69,42.92c118.83-12.71,225.42,73.42,237.94,192.27,12.52,118.84-73.78,225.3-192.64,237.63-118.6,12.3-224.76-73.76-237.26-192.34-12.49-118.58,73.4-224.88,191.96-237.56ZM1878.04,380.77c151.57-5.73,153.89-239.61-.01-245.93-158.21,7.23-149.5,243.33.01,245.93Z"/>
  <path class="cls-1" d="M1283.52,58.55l60.3.05v151.42h156.21V58.6h95.99v399.55h-95.99v-166.83h-156.21v166.83l-60.3.06-36.04.06V58.5l36.04.05Z"/>
  <path class="cls-1" d="M2159.43,58.6l93.45-.17c54.89-.04,119.3-4.09,166.65,29.6,50.87,36.2,56.65,121.61,18.21,169.1-31.14,38.46-75.9,46-122.73,50.35l-59.32.12v150.55h-96.27V58.6ZM2255.69,231.31c31.05.08,67.71,3.15,94.35-14.12,12.82-13.39,15.03-18.12,15.41-36.77,1.06-52.39-74.24-44.6-109.76-44.26v95.15Z"/>
</svg>