<?xml version="1.0" encoding="UTF-8"?>
<svg id="Layer_1" data-name="Layer 1" xmlns="http://www.w3.org/2000/svg" viewBox="0 0 1920 658.97">
  <defs>
    <style>
      .cls-1 {
        fill: #fff;
      }

      .cls-2 {
        fill: #900d3f;
      }

      .cls-3 {
        fill: #01062e;
      }

      .cls-4 {
        fill: #030439;
      }

      .cls-5 {
        fill: #c60138;
      }
    </style>
  </defs>
  <path class="cls-5" d="M257.85,198.61c0-20.67-2.04-194.03,1.91-198.02.2-.21.43-.39.65-.59,3.63.22,2.21-.3,5.32,2.62,1.8,17.64.76,51.3.75,70.71l-.12,131.87c10.95,8.8,22.59,18.55,33.67,27.05-.03-67.58.64-136.33-.31-203.82,66.42,49.82,78.15,9.62,144.33,6.44-72.07,81.87-58.73,93.51-58.21,193.03-24.8,1.86-41.01,9.44-61.81,22.22l81.95,60.33c-5.5,6-7.3,8.19-11.48,15.03-6.59,14.52-9.18,25.99-8.78,41.94l-85.55.13c-.32-6.97.04-16.16.1-23.3-6.83-5.51-15.87-11.77-23.1-17.07-2.53-1.71-7.81-5.95-10.27-5.89-1.17,6.35-.54,38.04-.51,46.33l-8.57.08.11-54.2c-4.33-3.45-11.85-8.16-16.7-11.38,1.41,19.78.56,45.44.48,65.66-23.09-.76-51.25-.19-74.68-.24l-.14-42.64c.25-13.84,3.85-41.6-6.71-51.6-10.67-10.1-33.66-10.04-47.94-7.97-40.16,5.83-63,28.37-79.88,60.64-7.88-88.77,42.44-127.16,134.57-116.96l.04-107.84c-63.46,1.37-131.57,6.69-166.97-54.23,26.28,10.09,43.25,17.69,72.22,20.21C139.14,73,190.61,34.53,241.73.17l-.12,185.61,16.23,12.82Z"/>
  <path class="cls-2" d="M277.16,327.18c.15-.07.31-.13.46-.2,11.01-5.41,102.19-4.19,116.88-1.5-6.59,14.52-9.18,25.99-8.78,41.94l-85.55.13c-.32-6.97.04-16.16.1-23.3-6.83-5.51-15.87-11.77-23.1-17.07Z"/>
  <path class="cls-2" d="M240.47,324.83c-.19-7.59-.7-15.25.75-22.72,1.41,19.78.56,45.44.48,65.66-23.09-.76-51.25-.19-74.68-.24l-.14-42.64c6.91-1.64,64.76-1.08,73.59-.07Z"/>
  <path class="cls-4" d="M1798.61,60.69c43.99-12.78,53.74-22.33,88.12-49.04,8.41,8.85,28.18,37.15,33.27,48.1-10.15,12.19-28.94,21.39-35.14,30.66-5.83,8.71-3.07,115.91-2.72,133.5,9.95,3.15,17.12,5.09,27.33,7.39-8.55,20.56-11.94,21.7-25.26,39.13l.07,54.35-.07,42.95.04,93.82c6.51,6.79,22.8,16.53,23.69,24.9,1.46,13.6-22.24,43.04-31.42,53.25-18.05-21.53-20.5-29.65-49.16-42.82-30.73,16.44-24.83,23.57-45.29,42.47-31.47-25.82-46.98-37.22-87.55-47.59,5.36-14.06,20.33-31.65,21.86-36.95,5.64-19.62,3.1-65.81,2.94-86.99l.04-42.91c-.06-16.19-4.87-82.5,4.44-91,2.91-2.66,9.09-1.79,12.8-1.74,15.41.21,28.85-2.59,42.64-9.21,23.41-11.24,28.15-25.97,45.2-41.92.44-18.05,2.59-65.65-2.11-82.36-1.07-3.8-17.68-22.79-23.72-37.98Z"/>
  <path class="cls-5" d="M1798.61,60.69c43.99-12.78,53.74-22.33,88.12-49.04,8.41,8.85,28.18,37.15,33.27,48.1-10.15,12.19-28.94,21.39-35.14,30.66-5.83,8.71-3.07,115.91-2.72,133.5,9.95,3.15,17.12,5.09,27.33,7.39-8.55,20.56-11.94,21.7-25.26,39.13l.07,54.35-.07,42.95-59.19-.23-.29-43.1.02-63.32c-9.24-6.94-19.08-14.76-28.98-20.91-4.89-3.03-7.02-2.8-11.95-.66-10.12,11.49-6.17,66.6-6.01,85.12-11.66-.9-47.51-1.05-58.45.27-.06-16.19-4.87-82.5,4.44-91,2.91-2.66,9.09-1.79,12.8-1.74,15.41.21,28.85-2.59,42.64-9.21,23.41-11.24,28.15-25.97,45.2-41.92.44-18.05,2.59-65.65-2.11-82.36-1.07-3.8-17.68-22.79-23.72-37.98Z"/>
  <path class="cls-2" d="M1824.73,324.39c11.44-.14,50.57-1.07,59.55.38l-.07,42.95-59.19-.23-.29-43.1Z"/>
  <g>
    <path class="cls-1" d="M1816.71,483.65c-5.45,0-16.25-3.9-36.79-22.46-1.73-9.33-1.44-18.06-1.13-27.3.14-4.06.28-8.26.23-12.52-.12-11.1-.26-22.2-.41-33.31-.09-6.78-.18-13.56-.27-20.34l-.03-43.09c-.03-3.16-.17-7.38-.32-12.26-.77-23.55-2.05-62.92,6.14-72.45,2.18-.95,3.87-1.53,5.47-1.53,1.68,0,3.4.64,5.91,2.2,7.95,4.94,15.84,10.94,23.48,16.75,1.77,1.35,3.53,2.69,5.27,3.99l-.02,63.07.29,43.1c.03,4.18.3,10.63.66,18.8,1.41,32.67,3.75,87.28-5.72,96.97-.83.25-1.75.38-2.74.38Z"/>
    <path d="M1789.59,238.88h0c1.58,0,3.22.62,5.65,2.12,7.93,4.93,15.82,10.93,23.44,16.72,1.71,1.3,3.4,2.58,5.07,3.84l-.02,62.83.29,43.1c.03,4.19.3,10.65.66,18.83,1.31,30.35,3.73,86.7-5.49,96.5-.75.21-1.58.32-2.47.32-5.34,0-15.98-3.86-36.33-22.22-1.68-9.21-1.39-17.87-1.09-27.03.14-4.07.28-8.27.23-12.55-.12-11.13-.27-22.45-.41-33.4-.09-6.75-.18-13.51-.26-20.25l-.03-43.1c-.03-3.16-.16-7.38-.32-12.27-.76-23.41-2.03-62.49,5.95-72.02,2.07-.89,3.67-1.44,5.16-1.44M1789.59,237.88c-1.69,0-3.41.59-5.77,1.62-10.12,11.49-6.17,66.6-6.01,85.12l.03,43.09c.22,17.88.49,35.77.68,53.65.14,13.78-1.63,26.41.93,40.08,6.99,6.32,25.69,22.7,37.25,22.7,1.07,0,2.08-.14,3.01-.44,12.14-11.99,5.43-95.17,5.3-116.22l-.29-43.1.02-63.32c-9.24-6.94-19.08-14.76-28.98-20.91-2.54-1.58-4.34-2.27-6.18-2.27h0Z"/>
  </g>
  <path class="cls-2" d="M1777.81,324.62l.03,43.09c-19.47-.02-39.06-.14-58.52.08l.04-42.91c10.93-1.32,46.79-1.17,58.45-.27Z"/>
  <path class="cls-5" d="M1376.87,169.35c28.98,23.48,49.77,40.17,88.08,48.84-7.27,19.21-23.1,31.75-25.85,42.77,2.12,30.08.55,75.32.48,106.46-.04,22.41-2.03,57.89,1.98,79.89,1.74,9.51,20.74,16.82,21.5,28.02.83,12.13-23.79,42.99-31.86,51.42-14.51-21.51-22.99-31.65-48.51-43.01-24.61,12.54-28.55,22.77-44.44,43.17-31.58-25.72-47.21-38.97-88.57-48.07,7.14-19.02,13.36-22.42,21.69-35.31,7.28-11.28,3.44-60.21,2.89-75.73l-.02-49.07c.31-19.24-2.39-76.53,2.4-96.2.74-3.05,20.93-3.83,26.27-4.69,33.1-5.35,54.62-25.23,73.97-48.48Z"/>
  <path class="cls-4" d="M1381.5,367.8l58.07-.38c-.04,22.41-2.03,57.89,1.98,79.89,1.74,9.51,20.74,16.82,21.5,28.02.83,12.13-23.79,42.99-31.86,51.42-14.51-21.51-22.99-31.65-48.51-43.01-24.61,12.54-28.55,22.77-44.44,43.17-31.58-25.72-47.21-38.97-88.57-48.07,7.14-19.02,13.36-22.42,21.69-35.31,7.28-11.28,3.44-60.21,2.89-75.73,18.92-.09,40.42-.66,59.13-.11-.22,25.36-1.46,52.28.96,77.36.54,5.61,29.01,25.11,34.33,26.66,3.81-.35,5.93-.51,8.58-3.39,8.15-8.87,4.31-84.04,4.26-100.52Z"/>
  <g>
    <path class="cls-1" d="M1368.72,471.2c-5.42-1.7-33.38-20.96-33.88-26.2-1.89-19.67-1.54-40.57-1.19-60.78.09-5.45.19-11.08.24-16.53l.03-42.29-.38-56.75c-.01-1.51-.11-3.45-.22-5.68-.52-10.1-1.38-27.01,5-33.74,1.85-1.95,4.25-2.94,7.11-2.95,9.65,0,27.41,15.8,34.63,23.57,1.7,13.95,1.39,39.09,1.13,59.31-.07,5.76-.14,11.2-.15,15.72l-.04,42.92c0,2.94.14,7.69.3,13.71.69,25.75,2.14,79.33-4.42,86.47-2.49,2.71-4.37,2.88-8.12,3.22h-.04Z"/>
    <path d="M1345.44,226.78c9.43,0,26.9,15.53,34.14,23.29,1.68,13.95,1.36,38.96,1.11,59.09-.07,5.76-.14,11.2-.15,15.72l-.03,42.93c0,2.95.14,7.7.3,13.72.69,25.69,2.14,79.13-4.29,86.12-2.34,2.55-4.15,2.73-7.74,3.05-6.21-2.03-33-21.19-33.44-25.74-1.89-19.64-1.53-40.53-1.19-60.73.09-5.45.19-11.08.24-16.54l.03-42.3-.38-56.75c-.01-1.53-.11-3.46-.22-5.71-.51-10.02-1.37-26.8,4.87-33.36,1.78-1.87,3.99-2.79,6.75-2.79h.01M1345.44,225.78h-.01c-16.91.02-12.47,32.28-12.39,42.87l.38,56.75-.03,42.29c-.22,25.36-1.46,52.28.96,77.36.54,5.61,29.01,25.11,34.33,26.66,3.81-.35,5.93-.51,8.58-3.39,8.15-8.87,4.31-84.04,4.26-100.52l.03-42.92c.05-20.12,1.22-57.26-1.01-75.25-6.6-7.13-24.96-23.85-35.09-23.85h0Z"/>
  </g>
  <path class="cls-2" d="M1438.76,324.74c-.33-18.46-1.39-45.81.33-63.78,2.12,30.08.55,75.32.48,106.46l-58.07.38.03-42.92c8.2-1.47,48.36-.98,57.22-.14Z"/>
  <path class="cls-2" d="M1274.23,318.73c.38,1.05,1.28,4.27,2.03,4.48,13.02,3.7,45.81-1.36,57.15,2.18l-.03,42.29c-18.71-.55-40.21.02-59.13.11l-.02-49.07Z"/>
  <path class="cls-5" d="M559.68,180.41c37.49,28.46,39.16,33.46,86.84,48.57-7.03,21.48-19.78,28.02-24.19,42.04,2.39,17.58.57,76.64.6,96.76.02,16.5,1.76,108.67-2.27,116.34-10.57,3.17-24.3,2.72-35.7,4.43-40.53,6.1-44.33,28.31-64.66,49.21-22.89-15.86-40.63-35.57-70.5-43.67-3.55-.96-15.01-3.82-15.25-7.06-.68-8.89,15.7-27.52,21.5-34.77,2.16-22.67.98-60.83.79-84.54l-.15-80.88c-.02-14.43-.62-35.26.76-49.09,4.34-10.98,21.67-7.81,33.05-8.05,38.05-.81,48.22-28.57,69.21-49.3Z"/>
  <path class="cls-4" d="M516.55,367.72c.1,29.53.91,61.47.26,90.82,9.43,7.7,24.39,21.53,36.56,23.5,3.67-.97,4.99-1.75,6.76-4.98,7.08-12.9,3.14-89.96,3.04-109.26,19.92-.23,39.82-.11,59.73-.03.02,16.5,1.76,108.67-2.27,116.34-10.57,3.17-24.3,2.72-35.7,4.43-40.53,6.1-44.33,28.31-64.66,49.21-22.89-15.86-40.63-35.57-70.5-43.67-3.55-.96-15.01-3.82-15.25-7.06-.68-8.89,15.7-27.52,21.5-34.77,2.16-22.67.98-60.83.79-84.54h59.73Z"/>
  <path class="cls-1" d="M516.38,253.37c.68-35.39,30.5-9.5,42.11,3.71,4.85,5.52,4.44,7.85,4.99,14.71-2.24,27.05.05,67.6-.3,96.01.1,19.3,4.03,96.36-3.04,109.26-1.78,3.24-3.1,4.02-6.76,4.98-12.18-1.98-27.14-15.8-36.56-23.5.64-29.36-.16-61.3-.26-90.82l-.17-114.36Z"/>
  <path class="cls-2" d="M457.43,237.76c1.84,24.5.64,61.51.64,86.95,12.87-.9,44.27-1.04,57.44-.31-.1-13-1.13-61.53.87-71.03l.17,114.36h-59.73s-.15-80.88-.15-80.88c-.02-14.43-.62-35.26.76-49.09Z"/>
  <path class="cls-2" d="M563.48,271.79c1.88,4.66,1.02,45.01.98,52.88,11.55-.71,45.19-1.14,57.16-.39-.07-7.24-.73-48.93.71-53.27,2.39,17.58.57,76.64.6,96.76-19.92-.08-39.81-.21-59.73.03.35-28.41-1.94-68.96.3-96.01Z"/>
  <path class="cls-5" d="M845.43,50.4c6.8-.19,18.19-1.46,23.4,1.51,6.36,10.29,18.21,11.93,30.23,14.17,73.72,13.71,130.17-27.21,186.87-63.8l2.29.8c2.1,39.3.42,91.26.41,131.4v233.25s-77.06.12-77.06.12c0-28.6-1.19-63.55.38-91.5-1.12-1.48-3.26-2.88-5.2-3.11-32.08-3.87-64.73-11.15-94.44,5.04-22.87,12.46-28.31,24.78-35.12,46.61-10.35-50.7.05-107.02,64.55-117.03,25.17-3.91,44.92.63,69.8,2.32.16-32.35.45-65.13.19-97.52.04-1.24-.77-9.14-1.91-9.16-60.76-.95-129.66,5.19-164.4-53.11Z"/>
  <path class="cls-2" d="M1087.33,324.91l-.03-217.31c-.01-20.8-1.76-86.88.93-104.51,2.1,39.3.42,91.26.41,131.4v233.25s-77.06.12-77.06.12c0-28.6-1.19-63.55.38-91.5,1.57,7.36,1.04,39.26,1.03,48.59l74.34-.04Z"/>
  <path class="cls-4" d="M1104.64,367.83l9.56-.37c-1.31,45.02-.97,102.85.27,147.95,13.65-6.75,21.2-9.4,36.16-12.73.02-7.93-.32-16.23-.1-23.89.9-32.16-12.37-60.04,30.02-72.57,9.29-2.75,51.31-26.34,57.95-24.31l.91,2.86c-.69,5.58-3.36,7.57-7.44,11.64-.61,20.51,1.46,112.28-2.7,125.78-4.79,3.67-32.11,3.47-40.49,4.07-50.23,3.57-92.85,23.61-132.33,52.02-33.8,23.98-55.78,49.28-100.89,53.75-45.26,4.48-81.34-30.41-50.22-69.66,10.3-12.99,30.09-14.32,46.5-15.33-25.31,7.59-69.45,26.53-39.43,59.32,24.08,26.31,95.23,6.37,98.51-29.22,1.7-18.51.81-44.51.79-64.36l-.14-144.92,77.07-.12v163.83c5.27-3.68,10.94-7.49,16.1-11.26l-.11-152.48Z"/>
  <path class="cls-5" d="M1561.15,174.63c15.94,19.35,30.63,43.74,59.47,48.59,11.1,1.87,34.17-.96,41.59,5.24,3.94,8.83,1.85,81.13,2.01,96.36-.38,12.08-1.51,30.36-.98,41.96-19.05-.36-39.41.03-58.56.09l.02-42.55c0-20.28.46-40.62.35-60.9-.06-11.12,2.08-28.33-10.01-34.19-9.29.14-29.79,18.14-36.94,24.36,1.66,9.43,1.09,29.75,1.07,40.13l-.26,74.06c-20.27-.16-40.27-.22-60.55-.02l-.03-43.18c.47-16.69,2.11-48.93,0-64.37-12.75-13.93-19.38-19.43-25.59-36.59,42.43-10.69,57.19-19.05,88.41-49Z"/>
  <path class="cls-2" d="M1558.1,253.6c1.66,9.43,1.09,29.75,1.07,40.13l-.26,74.06c-20.27-.16-40.27-.22-60.55-.02l-.03-43.18c15.59-.81,44.23-1.13,59.53.1-.12-12.81-1.26-62.24.24-71.09Z"/>
  <path class="cls-2" d="M1604.7,324.34c11.67-.12,50.31-.99,59.52.49-.38,12.08-1.51,30.36-.98,41.96-19.05-.36-39.41.03-58.56.09l.02-42.55Z"/>
  <path class="cls-4" d="M714.13,366.42c27.92.86,88.56,3.01,115.86.69,4.19,2.29,17.48,12.22,22.02,15.46-17.78,17.52-13.55,47.81-13.53,70.59.03,26.76-4.41,52.86,26.59,63.92-36.77,22.86-78.33,9.89-81.6-33.91-1.78-23.79-.15-50.47-.32-74.57-15.34-11.84-31.74-23.73-47.33-35.38.43,23.68-.6,47.52,0,71.22.33,12.98,1.26,19.75,16.16,23.51-1.43,5.42-34.53,53.29-39.86,61.22l-45.29-33.46c21.01-25.63,13.54-87.27,13.36-120.03,14.3-1.66,20.66-3.97,33.94-9.26Z"/>
  <path class="cls-4" d="M300.16,367.55l85.55-.13-.15,56.06c-.08,35.95-6.47,84.85,38.76,98.65-29.75,26.25-72.7,25.76-100.36-1.33-34.18-33.47-22.46-108.89-23.79-153.26Z"/>
  <path class="cls-4" d="M241.7,367.78c-.53,38.27.04,77.72.07,116.09-42.07,32.28-116.25,117.18-181.71,62.85-26.91-22.33-.11-71.04,39.13-67.95-3.95,7.96-47.94,11.5-36.96,46.56,7.94,25.37,32.84,26.23,55.89,22.11,20.71-3.71,37.99-16.25,48.77-32.19,1.09-12.79.31-36.13.31-49.5l-.17-98.2c23.43.05,51.58-.52,74.68.24Z"/>
  <path class="cls-5" d="M757.76,176.91c41.82,3.7,40.56,23.37,87.47,31.2-9.91,25.07-6.56,87.52-6.4,117.31l-.41,4.13c-7.52,4.61-27.42,8.34-40.18,15.46,7.05,4.86,26.04,17.28,31.75,22.1-27.3,2.32-87.94.17-115.86-.69l4.32-3.21c-1.62-4.97-44.18-32.37-51.57-36.38,16.92-5.67,86.76,2.77,99.64-4.69,3.25,1.92,12.94,9.35,16.47,11.92l.23-97.07c-1.44-25.04-6.19-41.52-25.47-60.07Z"/>
  <path class="cls-2" d="M783.23,236.98c2.62,4.28,1.02,76.84,1.26,87.51,16.48-.29,37.88-.61,54.34.92l-.41,4.13c-7.52,4.61-27.42,8.34-40.18,15.46,7.05,4.86,26.04,17.28,31.75,22.1-27.3,2.32-87.94.17-115.86-.69l4.32-3.21c-1.62-4.97-44.18-32.37-51.57-36.38,16.92-5.67,86.76,2.77,99.64-4.69,3.25,1.92,12.94,9.35,16.47,11.92l.23-97.07Z"/>
  <path class="cls-4" d="M1604.69,366.88c19.15-.06,39.51-.45,58.56-.09.55,38.14-3.27,93.22,3.85,130.45,1.87,9.77,15.43,19.88,16.96,23.48-10.1,12.42-46.92,9.31-60.16.17-24.87-17.16-19.26-46.32-19.23-72.23l.03-81.77Z"/>
  <path class="cls-4" d="M1558.91,367.79l.07,120.06c-25.03,7.15-41.85,21.43-50.98,44.61-10.77-10.54-31.36-37.11-33.2-52.14-.95-7.71,17.34-21.25,23.77-26.99,1.65-28.06-.2-57.29-.21-85.56,20.27-.19,40.27-.14,60.55.02Z"/>
  <path class="cls-5" d="M654.02,177.85c25.14-3.34,78-4.51,81.1,25.57,2.95,28.7.55,66.08,1.04,95.67l30.37,23.05c-12.89,7.46-82.73-.98-99.64,4.69.15-3.14,11.97-16.31,12.27-24.76.99-27.81,4.84-70.27-4.06-96.16-1.95-5.68-17.18-23.31-21.07-28.07Z"/>
  <path class="cls-5" d="M1104.86,13.99c-.07-7.38-1.22-6.94,2.58-12.77,3.94-1.16,2.42-1.24,5.92-.12l.65,3.03c2.27,118.81.38,244.11.2,363.34l-9.56.37c-.04-116.66-1.84-237.54.22-353.85Z"/>
  <path class="cls-2" d="M1104.86,13.99c1.76,11.84.57,60.77.57,74.96l.02,163.65c0,10.3-2.66,67.25,4.26,71.69,5.5-6.95,3.18-77.66,3.17-91.98l-.05-163.56c0-13.11-.83-53.75,1.08-64.13l.09-.49c2.27,118.81.38,244.11.2,363.34l-9.56.37c-.04-116.66-1.84-237.54.22-353.85Z"/>
  <path class="cls-3" d="M257.81,367.7l8.57-.08.02,252.85c5.91,6.26,11.53,11.58,17.85,17.49l-22.72,21.02c-7.37-6.59-14.46-13.99-21.41-21.01,5.85-5.2,11.99-11.24,17.73-16.65l-.04-253.62Z"/>
</svg>