<?xml version="1.0" encoding="UTF-8"?>
<svg id="Layer_1" data-name="Layer 1" xmlns="http://www.w3.org/2000/svg" viewBox="0 0 3960.7 1273.65">
  <defs>
    <style>
      .cls-1 {
        fill: #fdae1d;
      }

      .cls-2 {
        fill: #802eef;
      }

      .cls-3 {
        fill: rgba(3, 3, 4, .99);
      }

      .cls-4 {
        fill: #31a7ec;
      }

      .cls-5 {
        fill: #030304;
      }

      .cls-6 {
        fill: #12181a;
      }

      .cls-7 {
        fill: #26217d;
      }
    </style>
  </defs>
  <path class="cls-7" d="M60.33.65c34.69-4.26,82.86,24.9,114.02,40.44l108.19,53.77,142.36,70.34c65.3,32.24,97.47,46.9,153.6,93.14,54.48-48.63,100.92-66.06,165.76-98.07l158.08-79.05c51.1-25.63,104.99-55.49,157.67-77.27,29.04-12.01,65.77,4.6,78.25,32.54,5.65,12.66,8.92,23.47,8.79,37.83,1.16,37.13.74,74.32.76,111.46l.02,201.84.03,248.47c-.01,23.57-.17,49.58-.08,72.96.55,138.23,10.18,179.35-122.41,247.89l-211.12,107.75c-67.82,34.92-161.83,70.54-184.91,151.36-14.3,50.06-48.31,70.03-97.39,49.79-33.94-14-67.68-32.59-100.31-49.07l-182.12-92.25-139.53-70.25C-13.11,991.5.1,994.09.68,859.41l.17-181.65-.11-378.75C.5,224.69-.03,150.31,1.05,76.01,1.64,35.41,20.82,9.6,60.33.65Z"/>
  <path class="cls-4" d="M1056.66,101.9l1.73.46c3.24,6.52.94,613.56,1.33,675.54.05,9.12-3.11,29.78-6.12,39.45-4.39,14.05-19.15,34.45-31.44,42.51-33.43,21.92-73.76,38.46-109.47,56.83l-289.58,147.36-1.85-1.51c-3.56-6.88-1.52-598.24-1.18-663.7.05-10.03,2.74-25.29,5.91-35.41,7.55-24.06,21.66-47.65,42.49-62.66,29.05-20.94,67.69-36.59,100.3-53.57,94.6-49.27,193.98-95.37,287.88-145.31Z"/>
  <path class="cls-2" d="M92.13,94.1c12.57,4.97,42.78,21.16,56.54,28.05l110.44,54.95,135.09,66.83c58.49,28.82,121.88,49.45,135.27,124,5.51,30.66,4.23,67.55,4.16,98.91l-.37,123.86c-.26,120.44,2.27,246.76-.95,366.65-5.49,1.04-397.13-199.92-441.48-220.2,3.92-212.8-2.87-429.72,1.3-643.04Z"/>
  <path class="cls-1" d="M92.09,827.6c31.81,13.41,99.98,51.14,133.35,68.09l132.93,67.54c108.87,55.44,170.08,70.49,174.47,211.53-6.81-2.76-27.59-14.49-35.62-18.59l-100.84-52.38-303.64-155.06c-2.08-37.56-1.32-83.25-.65-121.12Z"/>
  <path class="cls-6" d="M2269.06,730.84c51.19,55.01,46.18,180.21,5.18,239.8-47.95,77.2-167.62,90.7-238.36,40.74-116.72-82.42-87.41-323.35,69.87-341.03,47.45-5.34,88.57-1.09,126.9,26.16,14.32,8.61,26.64,20.82,36.41,34.34ZM2143.02,969.17c120.31-11.02,108.42-232.84-8.05-229.17-12.91.63-22.2.99-34.22,6.21-68.61,29.83-70.12,156.72-20.09,202.91,17.69,16.33,38.99,19.61,62.36,20.05Z"/>
  <path class="cls-5" d="M2232.65,696.5c14.32,8.61,26.64,20.82,36.41,34.34-10.33,6.48-34.99-23.84-36.41-34.34Z"/>
  <path class="cls-6" d="M2429.99,119.78c53.98-.25,170.74-7.53,218.6,11.9,99.34,40.33,95.1,200.3-9.48,243.96,31.61,47.79,60.75,105.46,92.05,155.54-25.03,1.45-56.49.64-81.98.66-4.18.05-8.99-.19-13.23-.31-8.91-2.98-72.67-126.26-83.3-144.29l-35.77.27c-1.12,47.97-.38,96.87.26,144.84-28.2-1.22-58.64-.54-87.03-.4l-.12-412.18ZM2517.47,312.99c33.84-.52,68.35,3.28,95.36-17.42,20.07-22.99,24.2-63.62-.13-85.49-23.09-20.75-66.51-12.17-95.96-14.88-.2,39.63-.21,78.19.73,117.8Z"/>
  <path class="cls-6" d="M3659.81,675.84c31.14-2.48,63.86-.57,95.16-1.29,46.77-1.07,84.24.4,127.02,22.47,35.2,22.18,68.91,68.51,73.22,110.62,18.43,76.63-9.46,171.35-83.61,206.48-58.64,27.79-146.74,18.69-211.76,19.97,2.53-115.14-.21-241.78-.02-358.26ZM3736.97,963.75c45.39-.37,78.44,4.08,113.98-28.16,38.21-41.9,39.22-128.77-3.26-168.44-28.47-26.59-74.53-22.47-110.95-21.94l.23,218.55Z"/>
  <path class="cls-5" d="M3881.98,697.02c35.2,22.18,68.91,68.51,73.22,110.62-7.71,1.79-8.91-32.34-17.35-40.52l-1.55,4.59c-7.76-7.92-11.34-23.33-17.69-33.07-8.57-13.15-36.39-26.32-36.63-41.62Z"/>
  <path class="cls-6" d="M2782.12,119.72l85.65-.19c6.16,8.94,45.31,67.35,48.52,76.39,15.6,24.71,34.82,53.41,49.15,78.17,25.69,38.6,47.46,74.42,70.47,114.61.33-86.91,1.72-182.81-.97-269.44,28.12-.09,55.5.08,83.62.68,3.15,5.05,1.82,63.02,1.79,73.71l-.07,225.97c.12,18.93,2.44,99.73-1.53,111.11-2.19.6-3.48,1.14-5.73,1.17-20.06-1.37-59.77-.08-81.2.03-7.66-10.82-22.34-33.03-27.77-44.43-10.87-14.83-28.66-44.39-37.59-60.47-25.13-33.44-48.57-77.37-71.7-112.92-8.51-13.09-17.14-30.22-26.56-42.14-3.41,35.72.59,101.93.38,141.02-.12,22.4-1.13,102.01,1.43,118.81-23.83.22-65.07,1.25-88.24-.43,1.68-15.28.95-43.8.93-59.79l-.13-103.81c-.02-76.39,2.89-172.73-.46-248.05Z"/>
  <path class="cls-5" d="M3118.56,119.94c3.15,5.05,1.82,63.02,1.79,73.71l-.07,225.97c.12,18.93,2.44,99.73-1.53,111.11-2.19.6-3.48,1.14-5.73,1.17,3.82-4.33.22-8.98.64-16.39.02-10.77,3.28-25.02,2.08-35.6-6.19-54.61-2.42-108.34-3.16-163.08-.82-61.07-2.54-122.69.31-183.72.14-3.08,4.05-10.34,5.66-13.16Z"/>
  <path class="cls-5" d="M2781.78,531.36c1.68-15.28.95-43.8.93-59.79l-.13-103.81c-.02-76.39,2.89-172.73-.46-248.05,1.81,2.27,4.2,5.25,7.15,8.94,2.03,126.65,2.76,255.3-.23,381.88-.2,8.59-4.78,16.53-7.26,20.83Z"/>
  <path class="cls-5" d="M2916.29,195.91c15.6,24.71,34.82,53.41,49.15,78.17-3.1.95-3.82.64-7.02-.05-16.59-13.98-31.68-45.18-41.24-64.82-3.82-7.85-3.33-6.8-.89-13.3Z"/>
  <path class="cls-5" d="M2966.48,427.02c14.78,3.37,36.7,41.51,39.42,55.83l-1.83,4.64c-10.87-14.83-28.66-44.39-37.59-60.47Z"/>
  <path class="cls-6" d="M2143.01,119.61c32.34-.55,66.13,0,98.57.08,9.13,19.13,17.47,47.03,24.62,67.74l38.36,111.5,37.31,104.69c4.37,12.45,15.86,43.99,18.61,56.2,9.77,21.59,16.63,48.53,26.7,71.77-32.02.28-63.45.32-95.47-.09-9.18-29.46-21.3-64.51-28.09-94.01-42.57,2.09-93.5-1.19-138.35.24l-29.67,94.66c-29.74-1.2-64.65-.44-94.79-.45l85.41-247.95c17.27-50.86,37.22-115.32,56.8-164.37ZM2149.16,363.42c17.9-.9,76.56-2.52,92.11,1.13-5.67-12.44-14.81-44.68-19.04-58.49l-29.85-94.44c-5.77,17.45-46.27,144.23-43.21,151.8Z"/>
  <path class="cls-5" d="M2360.48,459.82c-.66,2.03-.14,1.09-1.97,2.67-17.38-43.69-47.39-107.94-57.84-156.68-.68-3.17,1.67-4.67,3.89-6.88l37.31,104.69c4.37,12.45,15.86,43.99,18.61,56.2Z"/>
  <path class="cls-5" d="M2149.16,363.42c17.9-.9,76.56-2.52,92.11,1.13-9.58,11.8-68.62,9.29-83.48,5.17-2.54-.7-6.62-4.32-8.63-6.3Z"/>
  <path class="cls-6" d="M2580.03,674.39c15.2.97,69.08-2.26,74.31,1.11l2.57,3.55c-2.74,16.24-1.47,101.94-1.2,122.21,1.02,76.95-1.3,155.91.25,232.56-27.5-.11-57.13.3-84.43-1.22-17.55-32.41-42.47-70.81-62.04-102.48l-80.13-130.95c3.01,72.06,1.27,144.81,2.48,216.96.1,6.06-.02,11.8.53,17.87-16.42-.17-58.21.86-71.58-1.54l-4.81-1.3c-1.92-6.14-.72-68.14-.74-79.38v-276.84s43.56.21,43.56.21c16.26-.51,27.47-.26,43.72.77,6.61,10.81,27.04,43.16,31.13,53.12,9.25,13.75,25.73,38.3,32.82,53.18,10.31,8.91,60.57,99.89,74.78,119.33-3.15-65.76-2.36-132.06-3.18-197.9-.12-9.69-.24-19.79,1.96-29.25Z"/>
  <path class="cls-5" d="M2355.23,674.94l43.57.21c-15.04,2.37-25.93-.77-34.7,9.61-3.7,9.93-1.82,52.33-1.74,66.12l-.19,188.95c.01,13.57.85,82.53-1.37,92.63l-4.81-1.3c-1.92-6.14-.72-68.14-.74-79.38v-276.84Z"/>
  <path class="cls-5" d="M2580.03,674.39c15.2.97,69.08-2.26,74.31,1.11l2.57,3.55c-5.88,5.54-13.77,5.91-21.56,5.25-18.57-1.58-41.53,3.56-55.32-9.91Z"/>
  <path class="cls-5" d="M2473.65,729.03c9.25,13.75,25.73,38.3,32.82,53.18-11.56-5.68-24.93-21.34-32.53-31.12l-.29-22.06Z"/>
  <path class="cls-6" d="M1674.32,675.3c43.46-1.76,127.37-1.39,168.55,1.68,69.88,14.37,97.95,68.72,85.62,137.72-7.2,40.3-33.11,62.33-66.93,81.89,24.12,40.08,47.73,80.17,70.65,120.94,3.02,5.37,6.33,10.58,9.98,15.54l-91.75.13c-18.53-40.17-45.19-81.62-65.72-122.25-10.52.58-22.15,1.48-32.58,1.04,1.89,40.54-.51,81.84,1.59,121.73-26.24-.27-53.96-1-80.07-.22,4.59-47.9-.62-121.65,1.52-174.08-2.02-59.87.11-123.48-.86-184.11ZM1752.48,844.53c28.34-.11,57.53,2.62,81.49-13.83,3.83-4.85,8.89-11.06,10.52-17,21.86-79.33-44.38-70.87-92.86-71.33.74,30.77,2.61,71.8.85,102.17Z"/>
  <path class="cls-5" d="M1674.32,675.3c43.46-1.76,127.37-1.39,168.55,1.68-20.91,10.87-129.97,4.67-163.73,6.69-4.19,49.75,5.46,133.43-3.97,175.74-2.02-59.87.11-123.48-.86-184.11Z"/>
  <path class="cls-6" d="M3519.41,675.51c15.64-1.05,29.4-.74,45.03-.47l33.03-.2c-1.09,114.18-2.84,245.05-.16,358.65-15.51-.21-30.94-.46-46.45-.34,4.22-1.24,5.82-1.53,9.55-3.99l-8.47-3.21c-11.46.25-26.98-.05-37.71,2.88-4.53-11.68-25.48-43.7-32.88-55.56l-70.95-113.02c-10.49-16.82-27.89-43.14-36.25-60.13-.11,47.93.47,95.38,1.8,143.29.84,30.43-.65,60.45,2.79,90.74-16.07-.52-57.95-2.09-72.03.42l-5.87-1.73c-2.38-3.96-1.14-66.49-1.14-75.66l-.08-248.23-.15-33.23c22.53-2,60.19-.95,82.53.12,13.31,15.22,50.01,78.24,62.63,98.97,24.88,40.87,55.75,86.02,78.82,126.89-1.99-73.92-4.82-152.54-4.02-226.2Z"/>
  <path class="cls-5" d="M3564.44,675.04l33.03-.2c-1.09,114.18-2.84,245.05-.16,358.65-15.51-.21-30.94-.46-46.45-.34,4.22-1.24,5.82-1.53,9.55-3.99l-8.47-3.21c11.37.2,24.03-.51,35.5-.91,3.2-64.63.45-138.92,1.4-204.57.44-30.55,2.12-108.71-.77-136.49-3.9-5.32-16.49-7.21-23.63-8.95Z"/>
  <path class="cls-5" d="M3299.6,708.96c11.82,23.73,8.29,136.77,8.23,169.16l-1.12,118c-.21,12.08.66,27.07-.02,38.46l-5.87-1.73c-2.38-3.96-1.14-66.49-1.14-75.66l-.08-248.23Z"/>
  <path class="cls-6" d="M1717.89,120.3c78.6-3.95,169.49.62,249.67-1.17-.4,12.87,0,25.73.26,38.61-7.73,7.76-7.59,19.04-8.53,29.87-32.6,1.03-65.23,2.07-97.84,2.86-7.67.18-14.75,2.55-23.52,3.05l-1.88,2.2c-10.04.38-22.98,1.24-32.79,1.04.1,15.8,1.51,74.15-1.6,87.27,47.86-3.82,103.13.63,151.11-1.95-.05,25.42-.09,50.64.36,76.07-35.98-.17-117.79,2.04-150.37-.7,1.45,14.55,1.61,81.9.32,97.79,12.55-2.47,35.73-1.4,49.09-1.71,37.4-.86,78.71,1.77,115.72-.94l.05,79.56c-81.85-1.83-168.37-.46-250.57-.47,1.48-47.1.47-99.83.42-147.23l.08-264.16Z"/>
  <path class="cls-5" d="M1801.67,284.03c47.86-3.82,103.13.63,151.11-1.95-2.05,1.52-9.05,6.52-10.83,6.83-19.59,3.45-125.6,5.02-138.51-.44l-1.76-4.44Z"/>
  <path class="cls-5" d="M1803.1,455.24l-4.46.59c-5.3-7.26-5.88-88.4,4.14-98.38,1.45,14.55,1.61,81.9.32,97.79Z"/>
  <path class="cls-6" d="M3028.95,674.51c51.35.97,103.13-.16,154.49.18,11.54.08,56.14-.88,64.72,1.22,2.66,4.62,1.62,7.88.85,13.26-2.29,14.93-4.85,29.74-9.28,44.18-35.99,4.75-102.36-1.03-125.67,11.26-5.45.28-10.98-.47-14.55,2.45-1.06,22.26.74,46.92-.58,67.66,36.95-.29,94.26-1.78,130.38.28-1.57,15.75-3.02,55.44-.07,70.4-35.25.08-95.41,1.99-129.51-.73-.04,23.42.68,56.05-.65,79.06l151.2-.19c-1.19,23.28-.63,46.73-.34,70.05l-229.3-.51.55-27.46c-2.58-73.98.83-247.88,1.13-328.28,0-.9,5-2.27,6.64-2.84Z"/>
  <path class="cls-5" d="M3021.18,1005.63c-2.58-73.98.83-247.88,1.13-328.28,0-.9,5-2.27,6.64-2.84-2.3,3.84-4.1,8.67-4.07,14.13.31,58.93-.36,117.78.43,176.68,0,.27.59,1.88.71,2.18,1.77-9.1.15-36.41.52-47.78,1.4-43.46-2.08-93.95.88-136.85,2.81,27.76,2.93,304.8-2.29,318.93l-3.96,3.84Z"/>
  <path class="cls-6" d="M1417.09,119.4c29.47,0,58.91.8,88.38-.07,1.54,109.46.46,222.89-.04,332.48l156.54-.04c-1.03,16.38,1.89,71.24-1.62,81.05-18.99.81-53.97-.87-74.57-.94l-169.49.06c1.87-39.36.47-84.39.78-124.08.76-95.9-1.48-192.62.03-288.46Z"/>
  <path class="cls-6" d="M1416.89,674.7h215.26c-.88,17.68-.02,42.28.05,60.48-13.76,6.05-118.36-8.72-136.81,9.34.77,24.84.61,50.03.67,74.91l20.22.13c12.38-.06,89.9-1.71,97.09,1.56l1.04,4.29c.34,22.13.17,43.66-.11,65.78-26.16-3.15-89.81-1.55-118.75-1.55,1.9,49.27.24,96,1.14,144.42l-81.59-1.39c3.45-31.05,1.62-92.42,1.67-126.29l.13-231.68Z"/>
  <path class="cls-5" d="M1516.28,819.55c12.38-.06,89.9-1.71,97.09,1.56l1.04,4.29c-9.61,3.92-60.03,4.53-72.45,3.57-13.78-1.06-17.31.07-25.68-9.42Z"/>
  <path class="cls-6" d="M2696.51,675.51c23.96-2.07,68.46-.75,94.27-.72l188.9.06c-.55,22.81-.15,45.6-.81,68.65-19.95-10.1-75.74-9.04-95.39,1.03l-4.72-.18c-3.12,5.09-2.06,4.89-2.1,11.82-.07,85.46-3.05,193.55.46,277.44-17.74-.13-35.7-.4-53.41-.24-7.01.32-20.42,2.13-25.83-1l-.76-4.16c1.56-28.28.4-66.29.34-95.15l-.25-188.39c-33.65-.02-66.98-.16-100.63.91.59-22.35-.04-47.49-.09-70.06Z"/>
  <path class="cls-5" d="M2869.53,1024.77c-2.83-31.23-.05-82.78-.56-116.39-.68-44.49-.03-93.7,2.21-138.11.25-4.89,2.76-10.03,5.49-14.11-.07,85.46-3.05,193.55.46,277.44-17.74-.13-35.7-.4-53.41-.24-7.01.32-20.42,2.13-25.83-1l-.76-4.16c10.63-.91,25.79-2.68,36.07-2.04,14.02-1.22,22.17-1.59,36.33-1.38Z"/>
  <path class="cls-5" d="M3393.58,298.56l2.84,1.68c1.37,26.67,1,55.82,1.17,82.69-62.43-2.97-138.47-1.76-201.55-.69l-4.61-1.49c-2.53-5.91-1.19-69.43-1.14-81.6,62.23.84,141.48,1.43,203.29-.59Z"/>
  <path class="cls-6" d="M3375.17,308.09c3.14-.25,6.35.13,9.5.38,7.89,9.16,5.23,51.3,4.61,65.25l-171.94-.08c-8.71.06-12.21,1.26-18.23-3.31-6.8-13.71-.82-41.85-.68-61.42,54.54.92,122.74,1.62,176.75-.81Z"/>
  <path class="cls-3" d="M3239.73,733.35c4.43-14.45,6.99-29.25,9.28-44.18l.66,56.15c-45-1.22-90.58-1.06-135.62-.71,23.32-12.29,89.68-6.51,125.67-11.26Z"/>
  <path class="cls-3" d="M1495.39,744.52c18.45-18.05,123.05-3.29,136.81-9.34l-.63,6.72c-.81.67-1.76,1.46-2.87,2.37-32.72-.02-103.99,1.37-133.31.25Z"/>
  <path class="cls-3" d="M1959.3,187.61c.94-10.83.8-22.11,8.53-29.87l-.14,38.49-88.92.15c-7.59,0-36.55.34-42.7-.66l1.88-2.2c8.77-.49,15.85-2.86,23.52-3.05,32.61-.79,65.25-1.83,97.84-2.86Z"/>
  <path class="cls-3" d="M2883.49,744.53c19.65-10.07,75.44-11.13,95.39-1.03-7.35,2.94-81.53,1.1-95.39,1.03Z"/>
  <path class="cls-3" d="M3514.22,1028.84c10.74-2.93,26.25-2.62,37.71-2.88l8.47,3.21c-3.72,2.46-5.32,2.75-9.55,3.99-11.28.51-28.27,2.86-36.64-4.31Z"/>
</svg>