<?xml version="1.0" encoding="UTF-8"?>
<svg id="Layer_1" data-name="Layer 1" xmlns="http://www.w3.org/2000/svg" viewBox="0 0 802.71 216.69">
  <defs>
    <style>
      .cls-1 {
        fill: #7841ca;
      }

      .cls-2 {
        fill: #ffffff;
      }
    </style>
  </defs>
  <path class="cls-1" d="M99.21.39c59.67-5.05,112.12,39.27,117.1,98.95,4.98,59.68-39.4,112.08-99.09,116.98C57.64,221.22,5.35,176.93.38,117.35-4.59,57.78,39.64,5.44,99.21.39ZM62.65,164.26c.04-15.35-2.71-37.56,8.5-49.78,8.08-8.82,21.26-7.01,31.94-5.55.67-4,1.79-9.13-.77-12.7-2.07-2.84-5.62-4.17-9.02-4.42-14.49-1.09-28.09,5.95-36.31,17.71-10.47,14.97-10.93,31.27-10.48,48.79.17,6.61-.36,11.58,3.82,17.29,5.72,3.56,12.48,3.38,18.89,1.68,18.2-4.8,28.32-13.77,38.04-29.1,17.68-27.88,16.7-71.78,47.69-89.02.37,14.28,3.2,39.02-5.54,50.88-4.42,5.99-17.45,2.74-23.71,1.17-1.93,7.75-4.22,14.71,6.01,17.1,18.02,4.2,34.15-7.97,36.85-26.01,2.24-14.97.79-34.04.91-49.41.07-8.63-4.63-11.92-13.06-11.1-10.72,3.25-15.53,7.08-23.53,14.59-32.28,30.31-21.07,94.68-70.22,107.89Z"/>
  <path class="cls-2" d="M301.48,63.09c5.26.03,10.73.13,15.97.07l.02,81.58-17.63-.04c-11.13-20.07-23.51-39.67-34.59-59.67,1.56,20.37,1.22,39.27,1.22,59.71h-16.86c.17-9.23.15-18.34.11-27.57.56-8.36-1.27-49.27.33-53.9,6.59-.11,13.4.01,19.91-.15,9.59,15.32,22.9,39.71,31.52,56.18.28-18.63-.4-37.58-.02-56.21Z"/>
  <path class="cls-2" d="M743.74,63.07l16.19-.06c-.23,9.91-.26,19.98-.35,29.9,26.41-28.61,59.3,16.74,34.11,46.33-12.1,9.96-25.21,9.29-35.12-3.04.07,2.71-.04,5.8-.07,8.53l-14.83.02c.83-25.87-.05-55.38.07-81.67ZM774.67,132.69c4.06-1.2,7.18-2.89,8.99-6.89,5.11-11.28,2.63-28.75-12.88-28.01-3.9,1.07-7.17,2.84-8.92,6.66-5.22,11.35-3.05,28.99,12.81,28.24Z"/>
  <path class="cls-2" d="M556.87,94.78c13.82-21.16,40.52-9.6,38.6,15.38-.75,9.76-.05,24.45-.04,34.6-5.26-.07-10.68.03-15.95.05.05-8.92,2.09-37.89-3.12-43.74-1.76-1.98-4.7-2.93-7.29-3.01-2.34-.07-4.37.85-5.95,2.55-6.23,6.7-4.17,25.72-4.1,34.73l.03,9.39-16.1.04c.07-8.1.18-16.19.16-24.34-.21-5.73,1.16-15.85-3.6-20.02-6.46-5.67-14.67-.59-15.71,7.15-.9,6.68-.44,12.33-.45,18.8-.01,6.27.03,12.26.04,18.39h-16.57c.68-18.31.1-41.09.07-59.58,5.22.05,10.48-.05,15.7-.11.16,2.83.09,5.63.06,8.46,4.49-5.66,6.95-7.96,14.02-9.18,10.38-.87,14.62,2.41,20.19,10.44Z"/>
  <path class="cls-2" d="M604.52,63.08c4.15.3,11.73.12,16.12.14.04,10.33-.2,21.21.18,31.49l34.11.04.09-31.56h16.43s-.02,81.58-.02,81.58l-6.09-.03-10.37.03.02-35.02-34.27.05c-.27,11.42.01,23.41-.13,34.96l-16.08.02V63.08Z"/>
  <path class="cls-2" d="M350.82,84.34c24.29-2.39,31.87,13.6,31.64,34.47-12.64-.4-27.46-.23-40.16-.03v.49c.48,15.18,15.59,19.93,25.18,7.47,3.08-.19,6.29-.1,9.38-.08l4.43.17.76,1.02c.46,7.12-12.8,16.73-19.37,17.82-15.92,2.64-32.96-4.67-35.87-22.14-3.09-18.58,3.96-35.74,24.01-39.2ZM342.36,107.8l13.48-.1,11.04.06c-2.45-7.85-4.4-11.34-13.46-11.43-7.4,1.35-8.99,4.54-11.06,11.47Z"/>
  <path class="cls-2" d="M444.46,85.23c5.31.02,10.66-.08,15.97-.14l-.07,24.07c-.02,7.59-1.76,21.55,8.64,22.97,5.52,1.02,11.47-4.06,12-9.55,1.14-11.83.53-25.46.46-37.35l16.01-.05v21.8s.12,37.76.12,37.76h-14.87c-.22-2.55-.22-5.97-.29-8.6-8.5,10.69-21.49,13.69-32.38,4.81-7.08-5.78-5.66-20.45-5.64-28.72l.05-26.99Z"/>
  <path class="cls-2" d="M718.49,85.13c5.22.11,10.73.04,15.97.05v20.41l.05,39.16-14.74-.03c-.2-2.49-.2-5.58-.27-8.12-4.93,5.82-9.3,9.35-17.37,9.53-8.89.73-18.92-5.76-19.9-15.29-1.49-14.49-.53-30.92-.73-45.64h15.94s-.07,23.51-.07,23.51c-.02,7.74-1.55,22.52,8.89,23.52,14.16,1.35,12.43-15.46,12.33-24.51-.09-7.76-.08-15.08-.09-22.57Z"/>
  <path class="cls-2" d="M382.26,84.65c4.41.83,13.8.53,18.62.51,3.34,6.82,6.98,13.48,10.33,20.41,3.43-6.83,6.89-13.97,10.72-20.55,5.48.28,12.01.15,17.59.17-5.05,8.74-12.98,20.26-18.57,29.03,5.83,9.76,13.47,20.49,19.71,30.45-5.94.19-12.66.05-18.65.06-3.61-6.62-7.37-13.22-11.07-19.79-3.71,6.51-7.27,13.22-10.83,19.83l-18.05-.02c5.01-8.76,13.86-21.29,19.65-29.9-5.98-8.06-14.18-21.5-19.43-30.19Z"/>
</svg>