<?xml version="1.0" encoding="utf-8" ?><svg xmlns="http://www.w3.org/2000/svg" xmlns:xlink="http://www.w3.org/1999/xlink" width="1024" height="1024" viewBox="0 0 1024 1024"><path fill="#7841CA" d="M210.738 386.671C270.411 381.62 322.863 425.939 327.841 485.617C332.82 545.296 288.438 597.694 228.753 602.6C169.171 607.498 116.883 563.208 111.912 503.632C106.942 444.056 151.168 391.714 210.738 386.671ZM174.176 550.543C174.221 535.191 171.467 512.988 182.677 500.762C190.761 491.945 203.942 493.752 214.617 495.212C215.283 491.215 216.408 486.083 213.847 482.511C211.777 479.674 208.227 478.341 204.823 478.086C190.329 477 176.737 484.039 168.515 495.792C158.047 510.758 157.581 527.063 158.032 544.577C158.203 551.192 157.673 556.155 161.856 561.871C167.575 565.435 174.332 565.248 180.743 563.555C198.938 558.751 209.059 549.786 218.778 534.459C236.461 506.575 235.476 462.674 266.468 445.435C266.841 459.712 269.671 484.454 260.93 496.318C256.514 502.312 243.478 499.056 237.215 497.49C235.287 505.238 232.998 512.204 243.227 514.588C261.246 518.787 277.375 506.623 280.079 488.575C282.322 473.604 280.869 454.532 280.989 439.163C281.057 430.534 276.357 427.247 267.929 428.061C257.209 431.311 252.396 435.142 244.397 442.652C212.114 472.962 223.325 537.327 174.176 550.543Z"/><path fill="#0E0E0E" d="M413.014 449.373C418.271 449.399 423.748 449.5 428.987 449.441L429.009 531.026L411.38 530.983C400.246 510.914 387.869 491.316 376.794 471.316C378.355 491.685 378.018 510.589 378.01 531.026L361.154 531.024C361.325 521.797 361.301 512.681 361.268 503.457C361.829 495.102 359.994 454.189 361.599 449.558C368.192 449.449 375.003 449.573 381.512 449.408C391.105 464.723 404.417 489.115 413.035 505.585C413.312 486.954 412.633 468.007 413.014 449.373Z"/><path fill="#0E0E0E" d="M855.273 449.351L871.464 449.287C871.237 459.201 871.202 469.262 871.118 479.188C897.53 450.579 930.418 495.928 905.225 525.514C893.128 535.469 880.017 534.801 870.107 522.47C870.173 525.175 870.071 528.268 870.039 531.004L855.206 531.022C856.032 505.155 855.16 475.638 855.273 449.351ZM886.201 518.972C890.261 517.774 893.379 516.085 895.192 512.08C900.3 500.799 897.826 483.327 882.316 484.07C878.411 485.145 875.149 486.913 873.395 490.73C868.18 502.078 870.348 519.725 886.201 518.972Z"/><path fill="#0E0E0E" d="M668.405 481.062C682.225 459.902 708.921 471.466 707.005 496.445C706.256 506.21 706.957 520.892 706.961 531.044C701.704 530.979 696.282 531.07 691.011 531.097C691.058 522.177 693.098 493.204 687.895 487.352C686.136 485.373 683.195 484.424 680.602 484.347C678.265 484.278 676.236 485.197 674.654 486.898C668.42 493.597 670.485 512.618 670.551 521.625L670.583 531.011L654.488 531.051C654.554 522.952 654.672 514.863 654.648 506.71C654.434 500.977 655.808 490.863 651.05 486.686C644.588 481.013 636.378 486.094 635.34 493.84C634.445 500.521 634.902 506.175 634.889 512.64C634.877 518.913 634.92 524.903 634.931 531.031L618.363 531.031C619.038 512.724 618.466 489.939 618.43 471.452C623.645 471.497 628.913 471.4 634.132 471.345C634.297 474.172 634.224 476.971 634.196 479.802C638.681 474.146 641.143 471.842 648.217 470.619C658.599 469.745 662.838 473.028 668.405 481.062Z"/><path fill="#0E0E0E" d="M716.049 449.362C720.196 449.661 727.775 449.482 732.173 449.499C732.209 459.833 731.976 470.714 732.348 480.984L766.461 481.027L766.547 449.467L782.982 449.455L782.966 531.046L776.875 531.017L766.503 531.048L766.519 496.023L732.246 496.072C731.971 507.493 732.258 519.484 732.114 531.032L716.039 531.051L716.049 449.362Z"/><path fill="#0E0E0E" d="M462.348 470.622C486.637 468.236 494.218 484.222 493.985 505.096C481.34 504.701 466.526 504.865 453.82 505.063L453.832 505.557C454.303 520.736 469.413 525.486 478.999 513.032C482.075 512.841 485.284 512.929 488.375 512.956L492.804 513.124L493.567 514.144C494.026 521.26 480.77 530.874 474.2 531.963C458.279 534.603 441.238 527.296 438.334 509.821C435.247 491.242 442.294 474.086 462.348 470.622ZM453.894 494.078L467.372 493.981L478.413 494.036C475.963 486.191 474.013 482.698 464.953 482.604C457.55 483.952 455.962 487.145 453.894 494.078Z"/><path fill="#0E0E0E" d="M555.993 471.507C561.303 471.523 566.651 471.429 571.963 471.37L571.892 495.436C571.872 503.027 570.128 516.981 580.53 518.41C586.051 519.426 591.999 514.354 592.526 508.858C593.663 497.028 593.058 483.4 592.984 471.508L608.991 471.453L609.006 493.25L609.111 531.011L594.24 531.004C594.017 528.462 594.019 525.041 593.954 522.414C585.458 533.107 572.468 536.1 561.577 527.221C554.493 521.445 555.919 506.767 555.941 498.497L555.993 471.507Z"/><path fill="#0E0E0E" d="M830.025 471.412C835.241 471.521 840.758 471.448 845.998 471.463L845.998 491.875L846.05 531.032L831.308 530.997C831.105 528.502 831.108 525.419 831.041 522.873C826.11 528.691 821.745 532.219 813.669 532.402C804.775 533.135 794.748 526.64 793.769 517.115C792.278 502.622 793.24 486.197 793.036 471.471L808.976 471.464L808.903 494.977C808.884 502.721 807.356 517.498 817.791 518.493C831.955 519.845 830.222 503.037 830.117 493.98C830.028 486.225 830.04 478.902 830.025 471.412Z"/><path fill="#0E0E0E" d="M493.79 470.924C498.198 471.757 507.593 471.454 512.407 471.437C515.743 478.252 519.385 484.921 522.734 491.843C526.165 485.015 529.621 477.868 533.45 471.288C538.932 471.567 545.46 471.441 551.038 471.458C545.992 480.194 538.056 491.717 532.469 500.488C538.303 510.251 545.938 520.973 552.181 530.943C546.244 531.136 539.523 530.996 533.53 531C529.923 524.381 526.157 517.783 522.46 511.209C518.747 517.721 515.193 524.433 511.629 531.037L493.579 531.021C498.589 522.26 507.444 509.735 513.225 501.116C507.241 493.058 499.046 479.615 493.79 470.924Z"/></svg>