<?xml version="1.0" encoding="UTF-8"?>
<svg id="Layer_1" data-name="Layer 1" xmlns="http://www.w3.org/2000/svg" viewBox="0 0 3637.99 3881.32">
  <defs>
    <style>
      .cls-1 {
        fill: #fff;
        stroke: #000;
        stroke-miterlimit: 10;
      }
    </style>
  </defs>
  <path class="cls-1" d="M2202.98,1408.9c255.94-23.67,576.34,194.27,573.55,559.92-1.07,142.51-62.95,254.58-141.32,348.86,32.48,34.6,59.88,65.04,95.73,94.48,16.66-.84,26.82-1.67,43.23.88,88.26,82.9,174.32,170.15,259.81,257.67,24.94,25.5,52.76,49.38,69.72,84.37-3.02,11.6-7.05,23.92-12.67,33.99-20.81,37.33-83.67,92.09-119.68,70.19-31.07-18.89-65.82-58.15-93.13-86.22l-96.89-98.59c-34.8-32.67-108.82-102.05-137.73-145.09-4.04-6.03,2.09-26.36,4.41-34.87-30.91-38.01-63.11-68.17-97.1-101.3-208.79,167.78-537.61,137.89-724.95-64.23-166.47-179.61-205.58-461.41-55.84-677.23,119.46-172.19,261.4-226.94,432.85-242.82ZM2258.17,2386.54c540.65-65.78,516.38-807.47.32-860.21-17.49-1.79-41.69-2.66-59.1-.36-125.03,9.44-242.08,63.41-327.89,183.2-117.46,163.98-97.96,395.25,33.34,536.23,102.62,110.21,221.63,146.94,353.32,141.14Z"/>
  <path class="cls-1" d="M2183.51,1665.46c154.64-9.01,301.9,67.38,348.52,269.83,17.7,80.89,19.86,171.42-9.74,248.48-12.81,33.37-60.42,80.51-58.49,8.96,1.86-18.31,13.81-37.15,18.33-53.48,31.11-112.35,9.56-246.41-61.65-327.11-35.38-39.44-67.08-66.41-113.32-83.46-125.1-47.28-255.73,5.36-350.56,115.06-22.38,25.87-51.51,102.23-86.52,86.08-14.16-18.72,2.51-54.57,13.47-70.54,80-116.53,180.6-176.73,299.97-193.82Z"/>
  <path class="cls-1" d="M2203.95,1747.58c68.52-1.11,144.97,27.47,193.5,91.84,100.79,133.65,60.77,341.59-39.79,455.36-18.56,21-33.87,29.17-52.97,2.9-2.48-3.43-3.27-12.18-1.6-16.61,8.63-16.17,22.2-28.54,32.76-43.09,69.58-95.69,100.49-234.12,36.36-348.04-98.84-152.35-284.75-109.1-376.3,28.75-29.94,45.06-70.81,118.08-122.84,116.59-3.86-.12-5.9-6.31-7.38-9.86-1.58-39.19,39.53-59.65,55.37-83.74,84.47-128.54,150.52-182.84,282.89-194.09Z"/>
  <path class="cls-1" d="M2175.74,1832.36c66.38-2.78,134.76,11.18,170.09,91.02,23.48,53.07,27.1,114.11,14.08,172.28-21.69,97.06-79.61,175.3-147.38,224.28-16.1,11.65-38.1,15.5-45.68-11.72.3-6.84,3.41-16.5,7.61-19.75,47.47-36.75,87.89-80.56,117.08-142.98,21.58-46.15,32.78-114.41,21.21-169.08-7.24-33.02-26.2-63.9-50.07-78.59-114.48-70.37-189.74,48.56-258.43,147.48-13.63,19.61-87.39,93.83-109.11,72.21-38.09-37.94,50.81-71.35,63.85-94.25,74.83-92.74,103.26-176.23,216.75-190.91Z"/>
  <path class="cls-1" d="M2172.44,1916.26c33.36-3.69,76.68,5.01,93.48,45.64,35.55,87.68-7.77,183.35-56.87,245.51-19.28,24.43-120.2,144.28-146.2,84.55-.95-7.91,1.55-19.49,6.82-23.18,48.99-34.02,96.71-74.71,129.52-133.56,15.15-27.17,34.22-78.57,29.56-112.72-10.77-92.97-58.82-62.14-94.39-15.01-49.36,65.41-90.52,135.92-156.02,178.62-29.79,19.42-47.86,20.49-62.65-20.51,37.97-23.95,88.37-62.11,118.05-100.45,57.58-74.37,56.89-114.2,138.71-148.89Z"/>
  <path class="cls-1" d="M2206.97,1575.78c52.27-2.44,101.42,4.43,151.42,24.09,90.95,35.76,180.14,110.47,224.27,220.87,9.98,24.97,21.72,63.51,13.83,91.07-2.46,8.61-4.78,12.18-11.04,16.27-25.73,2-43.11-73.83-53.39-98.17-25.5-60.3-58.75-94.23-102.74-130.93-141.69-119.53-322.53-89.87-454.25,26.14-10.15,8.93-30.18,12.2-36.39-5.2,1.9-37.54,49.56-67.55,72.64-82.82,63.45-41.97,125.6-54.69,195.66-61.33Z"/>
  <path class="cls-1" d="M2171.7,2005.52c51.07,11.04,19.63,66.69,1.48,98.45-42.4,74.25-98.14,120.96-161.69,160.63-9.92,1.3-23.28-12.02-25.3-25.18,7.01-33.85,56.82-53.09,77.07-71.46,48.12-43.71,64.81-109.31,108.43-162.44Z"/>
  <path class="cls-1" d="M1834.09,313.24c38.52-3.94,75.59,3.21,113.04,13.59,227.23,63.23,272.42,383.66,150.38,605.54-17.61,32.02-90.23,112.94-68.41,147.8,28.11,44.9,105.39,64.02,147.33,80.06,141.21,54.02,302.58,96.07,386.27,267.3-98.63-49.45-180.14-85.26-286.64-92.32-241.85-16.03-450.33,81.96-599.72,332.23-65.62,122.6-74.44,224.99-68.89,369.64-173.05-54.13-299.3-131.65-439.95-273.91-.46-109.42-12.91-254.34,11.08-358.3,6.7-29.04,28.29-66.87,48.48-85.24,91.19-82.98,219.37-119.48,324.9-166.26,39.18-17.39,96.22-29.89,124.73-70.47,27.31-38.89-24.9-99.55-44.27-125.84-92.88-125.98-126.39-362.2-37.97-504.32,58.86-94.6,149.53-127.15,239.68-139.51Z"/>
  <path class="cls-1" d="M1786.2,1.95c318.16-15.17,633.86,87.99,884.74,347.84,166.82,172.8,288.26,415.43,310.26,692.13,19.28,242.31-48.52,514.5-170.84,701.81-20.49-53.7-38.72-104.15-65.43-153.49,96.19-178.42,133.9-429.42,94.78-639.26-47.91-256.85-186.57-463.59-360.05-601.2-273.34-215.86-609.35-262.68-920.79-175.22-361.76,101.58-725.52,487.77-705.42,997.63,2.17,55.03,10.56,104.18,20.38,157.68,30.03,134.89,64.53,211.62,131.34,321.14,134.24,220.09,396.78,421.03,615.59,450.78,15.7,64.34,52.52,145.71,86.81,196.37,118.93,175.76,255.83,241.66,428.92,263.31-45.34,55.11-99.23,110.49-146.43,163.98-33.45,36.17-66.39,73.09-101.31,106.92-39.59,38.38-77.1-8.24-106.4-40.44l-370.61-415.59-218.39-249.11c-218.23-253.49-443.52-528.72-464.05-926.54-15.11-258.9,50.86-503.61,185.59-698.87C1140.4,174.98,1453.03,32.23,1786.2,1.95Z"/>
  <path class="cls-1" d="M1840.74,3311.36c59.07-5.82,92.26,2.23,140.4,47.8v-41.83s95.11-.42,95.11-.42l.55,242.52c.71,83.97,14.09,201.19-41.28,261.94-50.99,55.55-126.08,62.02-189.77,58.77-54.87-2.81-158.3-43.57-151.35-134.3,29.26-2.92,67.54-1.62,97.39-1.37,18.29,36.64,44.34,55.73,78.9,57.54,29.87,1.55,65.37-9.56,87.64-36.01,23.55-28.01,22.04-68.5,22.13-106.13-28.19,24.13-51.52,36.89-86.07,43.67-81.47,17.66-202-44.32-210.5-163.33-10.34-144.62,51.79-213.47,156.86-228.85ZM1897.82,3616.76c144.37-46.31,86.88-241.03-29.91-221.12-29.62,6.36-54.72,18.77-72.64,51.51-27.75,50.74-12.72,119.61,27.14,151.63,24.36,19.56,48.21,18.82,75.41,17.98Z"/>
  <path class="cls-1" d="M2593.05,3245.65h149.88c20.05,83.32,44.64,166.32,65.8,249.32,5.27,20.63,11.81,48.68,18.56,67.94l7.66,31.28,9.79-34.39c26.15-104.69,56.52-209.64,82.09-314.17l150.23.02v501.3l-91.65.12c0-132.49,1.86-272.29-.23-404.12-35.92,126.78-69.56,274.51-102.78,404.17l-95.41-.05-63.92-254.95c-11.74-46.71-24.85-104.02-38.4-148.57l-.26,403.48-91.39-.05.02-501.32Z"/>
  <path class="cls-1" d="M2504.32,3376.65c100.95,124.34,39.49,283.91-83.39,327.79-63.18,22.58-133.76,16.17-191.32-26.1-142.91-104.88-92.51-315.61,55.29-361.01,69.49-21.39,132.99-11.18,193.39,34.62,10.72,9.05,16.19,14.08,26.03,24.71ZM2370.73,3628.52c133.74-42.65,97.42-247.37-38-233.05-10.91,3.13-20.09,5.71-30.65,10.93-68.31,33.78-70.42,161.31-8.38,205.97,26.47,19.07,47.89,18.05,77.03,16.15Z"/>
  <path class="cls-1" d="M582.52,3311.41c58.16-5.82,122.51,4.69,166.59,58.91,37.67,46.36,41.38,103.07,41.7,166.53-92.94-1.76-187.41-.26-280.46.44,12.42,69.93,52.66,99.35,106.83,95.18,35.9-2.76,53.23-17.08,76.22-50.51l39.29.63c13.17.19,35.54-.44,47.35,3.6,9.17,10.72.89,25.87-5.23,36.36-61.28,108.59-226.56,117.17-306.12,42.86-59.86-55.92-81.13-191.28-30.49-266.83,39.93-59.61,86.08-78.47,144.32-87.15ZM612.58,3470.49c27.48.16,56.25.84,83.6-.26-21.92-66.01-40.74-78.54-95.88-81.77-45.06,8.33-73.2,22.48-89.58,82.09l101.87-.07Z"/>
  <path class="cls-1" d="M3192.42,3246.37c34.85-2.25,77.59-.74,112.99-.7,33.09,50.05,71.11,113.18,102.71,165,9.09-18.12,24.8-42.28,35.68-60.1l64.04-104.83,114.34-.07c-51.23,75.55-106.15,165.37-156.1,243.33,54.36,85.32,115.03,173.53,170.97,257.85l-27.89.14h-90.93c-30.28-51.81-79.68-125.64-112.83-176.02-32.71,55.41-77.66,121.37-112.81,176.06l-117.63-.09c16.77-28.24,40.07-61.86,58.17-89.42l112.37-171.89c-32.74-56.82-79.33-119.05-113.57-175.83-8.49-14.04-34.2-50.07-39.51-63.44Z"/>
  <path class="cls-1" d="M.83,3153.84l455.13.21.31,94.25-171.07.02c2.4,77.17,1.8,152.51,1.08,229.62.48,71.07-3.78,150.4,1.11,220.06l-113.21-.3.06-449.3-173.12-.12c-1.05-31.32-.52-63.04-.3-94.44Z"/>
  <path class="cls-1" d="M968.64,3311.31c54.37-5.13,134.57-2.25,170.02,60.91,9.83,17.49,13.15,36.52,17.19,56.99-31.45-.07-62.32.32-93.77,1.09-51.76-93.32-187.23-10.28-80.74,25.73,47.32,16.01,177.31,15.73,182.64,103.16,7.48,122.79-79.78,142.07-151.88,153.74-86.08,4.13-155.81-10.74-184.13-126.46,31.19-1.6,63.38-.63,94.67-.19,19.82,45.99,59.11,50.47,96.57,48.49,20.61-1.07,51.89-14.29,46.21-47.84-3.32-19.61-19.23-26.13-32.97-30.16-36.95-9-72.91-12.39-109.87-22.67-40.51-11.28-79-43.04-87.83-98.19-2.76-17.26,4.47-43.04,13.24-56.27,29.98-45.22,76.99-61.14,120.64-68.33Z"/>
  <path class="cls-1" d="M1353.97,3204.72l2.79,3.27c4.07,21,2.06,86.25,1.72,110.26,31.5-.88,63.16-.88,94.68-1.11-1.45,18.7-1.07,59.86-1.3,80.21l-93.52.72c.4,53.51-5.21,134.02,1.44,185.48,6.93,53.6,61.83,34.97,91.74,22.62.1,31.23.13,58.82,1.99,89.96-19.07,4.73-37.32,8.47-56.47,12.27l-10.87.19c-127.47.79-133.03-67.89-127.91-207.5,1.18-32.18.95-69.93,1.41-102.65-23.8-1.18-49.35-.7-73.33-.74l-.52-78.91c23.58-1.25,49.93-.95,73.74-1.35-1.47-33.41-1.48-70.79-2.02-104.53,38.21,1.07,59.35-1.83,96.45-8.19Z"/>
  <path class="cls-1" d="M1521,3317.67c20.5.81,81.18-3.9,95.21,3.62,4.49,20.02,2.91,110.38,2.91,136.57v240.47s-95.8-1.3-95.8-1.3c-2.92-41.42-2.52-96.01-2.69-138.29l.36-241.08Z"/>
  <path class="cls-1" d="M1549.82,3141.17c27-.84,64.02.32,78.32,34.06,18.4,43.44-12.11,66.92-36.86,81.81-45.92,4.25-66.48,2.2-84.82-55.39,8.69-39.47,14.26-44.53,43.36-60.49Z"/>
</svg>