<?xml version="1.0" encoding="UTF-8"?>
<svg id="Layer_1" xmlns="http://www.w3.org/2000/svg" version="1.1" viewBox="0 0 1024 1024">
  <!-- Generator: Adobe Illustrator 29.4.0, SVG Export Plug-In . SVG Version: 2.1.0 Build 152)  -->
  <defs>
    <style>
      .st0 {
        fill: #eaeaec;
      }

      .st1 {
        fill: #e1142d;
      }

      .st2 {
        fill: #26242a;
      }
    </style>
  </defs>
  <path class="st1" d="M62,504.88h469.06v21.4l-13.17-.02v146.1l13.17-.02v22.79H62v-190.24h0Z"/>
  <path class="st2" d="M184.6,526.65h38.3l23.51,98.9c9.28-31.18,18.01-67.14,26.53-98.9h37.02c7.95,32.29,17.99,66.9,26.74,99.19,6.84-31.8,16.05-67.41,23.98-99.19h36.93l-11.26,39.62c-3.58,10.84-7.23,25.08-10.43,36.27l-20.35,71.18h-35.15c-8.99-32.93-19.54-67.47-29.29-100.31-10.23,32.14-19.89,67.74-29.41,100.31h-35.31c-14.65-47.52-27.91-98.92-41.82-147.07h.01Z"/>
  <path class="st2" d="M456.44,523.35c21.1-2.53,40.55,4.28,56.7,17.65l-22.68,23.9c-6.42-7.32-17.81-13.47-27.38-12.47-30.42,3.16-23.09,25.31,1.49,31.35,22.47,6.8,47.26,15.93,47.41,43.57.18,34.6-24.91,49.38-56.48,50.07-22-.3-38.58-6.37-54.84-21.02l23.25-23.77c9.47,10.53,20.63,15.83,34.89,15.4,9.66-.29,18.81-6.97,17.28-17.29-2.05-13.81-24.85-16.61-35.52-21.33-6.12-2.71-11.71-4.47-17.07-8.7-9.54-6.89-14.65-16.22-15.36-27.95-1.87-31.09,20.3-45.73,48.31-49.43h0v.02Z"/>
  <path class="st2" d="M80.08,526.65h96.88v30.3h-61.74v30.37h56.95v26.61l-.26,1.79c-2.95,1.64-49.51.91-56.7.9v57.1h-35.14v-147.07h.01Z"/>
  <path class="st0" d="M739.79,520.55c43.43-4.64,82.38,26.83,86.95,70.26,4.58,43.43-26.96,82.34-70.4,86.84-43.34,4.5-82.14-26.96-86.71-70.29-4.56-43.33,26.82-82.18,70.15-86.82h.01ZM748.33,644.02c55.39-2.09,56.24-87.57,0-89.87-57.82,2.64-54.63,88.92,0,89.87Z"/>
  <path class="st0" d="M531.06,526.26l22.04.02v55.34h57.09v-55.34h35.08v146.01h-35.08v-60.97h-57.09v60.97l-22.04.02-13.17.02v-146.1l13.17.02h0Z"/>
  <path class="st0" d="M851.16,526.28l34.15-.06c20.06-.01,43.6-1.49,60.9,10.82,18.59,13.23,20.7,44.44,6.65,61.8-11.38,14.06-27.74,16.81-44.85,18.4l-21.68.04v55.02h-35.18v-146.01h0ZM886.34,589.4c11.35.03,24.74,1.15,34.48-5.16,4.69-4.89,5.49-6.62,5.63-13.44.39-19.15-27.13-16.3-40.11-16.17v34.77h0Z"/>
</svg>