<?xml version="1.0" encoding="UTF-8"?>
<svg id="Layer_1" xmlns="http://www.w3.org/2000/svg" version="1.1" viewBox="0 0 1024 1024">
  <!-- Generator: Adobe Illustrator 29.4.0, SVG Export Plug-In . SVG Version: 2.1.0 Build 152)  -->
  <defs>
    <style>
      .st0 {
        fill: #fdae1d;
      }

      .st1 {
        fill: #802eef;
      }

      .st2 {
        fill: #31a7ec;
      }

      .st3 {
        fill: #fff;
        stroke: #000;
        stroke-miterlimit: 10;
      }

      .st4 {
        fill: #26217d;
      }
    </style>
  </defs>
  <path class="st4" d="M146.8,572c6.98-.86,16.68,5.01,22.95,8.14l21.77,10.82,28.65,14.15c13.14,6.49,19.62,9.44,30.91,18.74,10.96-9.79,20.31-13.29,33.36-19.74l31.81-15.91c10.28-5.16,21.13-11.17,31.73-15.55,5.85-2.42,13.24.93,15.75,6.55,1.14,2.55,1.8,4.72,1.77,7.61.23,7.47.15,14.96.15,22.43v90.62c.01,4.74-.03,9.98,0,14.68.11,27.82,2.05,36.09-24.64,49.88l-42.49,21.68c-13.65,7.03-32.57,14.2-37.21,30.46-2.88,10.07-9.72,14.09-19.6,10.02-6.83-2.82-13.62-6.56-20.19-9.88l-36.65-18.57-28.08-14.14c-24.77-12.63-22.12-12.11-22-39.21l.03-36.55-.02-76.22c-.05-14.96-.15-29.92.06-44.88.12-8.17,3.98-13.36,11.93-15.16l.02.03Z"/>
  <path class="st2" d="M347.31,592.37l.35.09c.65,1.31.19,123.47.27,135.95.01,1.84-.62,5.99-1.23,7.94-.88,2.83-3.85,6.93-6.33,8.55-6.73,4.41-14.84,7.74-22.03,11.44l-58.28,29.65-.37-.3c-.72-1.39-.31-120.39-.24-133.56.01-2.02.55-5.09,1.19-7.13,1.52-4.84,4.36-9.59,8.55-12.61,5.85-4.21,13.62-7.36,20.18-10.78,19.04-9.91,39.04-19.19,57.93-29.24h.01Z"/>
  <path class="st1" d="M153.2,590.8c2.53,1,8.61,4.26,11.38,5.64l22.23,11.06,27.19,13.45c11.77,5.8,24.53,9.95,27.22,24.95,1.11,6.17.85,13.59.84,19.9l-.07,24.93c-.05,24.24.46,49.66-.19,73.79-1.11.21-79.92-40.23-88.85-44.31.79-42.82-.58-86.48.26-129.4h0Z"/>
  <path class="st0" d="M153.19,738.41c6.4,2.7,20.12,10.29,26.84,13.7l26.75,13.59c21.91,11.16,34.23,14.18,35.11,42.57-1.37-.56-5.55-2.92-7.17-3.74l-20.29-10.54-61.11-31.2c-.42-7.56-.27-16.75-.13-24.37h0Z"/>
  <path class="st3" d="M591.3,718.94c10.3,11.07,9.29,36.27,1.04,48.26-9.65,15.54-33.73,18.25-47.97,8.2-23.49-16.59-17.59-65.07,14.06-68.63,9.55-1.07,17.83-.22,25.54,5.26,2.88,1.73,5.36,4.19,7.33,6.91ZM565.94,766.9c24.21-2.22,21.82-46.86-1.62-46.12-2.6.13-4.47.2-6.89,1.25-13.81,6-14.11,31.54-4.04,40.83,3.56,3.29,7.85,3.95,12.55,4.03h0Z"/>
  <path class="st3" d="M583.98,712.03c2.88,1.73,5.36,4.19,7.33,6.91-2.08,1.31-7.04-4.8-7.33-6.91Z"/>
  <path class="st3" d="M623.69,595.97c10.86-.05,34.36-1.52,43.99,2.39,19.99,8.12,19.14,40.31-1.91,49.09,6.36,9.62,12.23,21.22,18.53,31.3-5.04.29-11.37.13-16.5.13-.84.01-1.81-.04-2.66-.06-1.79-.6-14.62-25.41-16.76-29.04l-7.2.05c-.23,9.65-.08,19.49.05,29.15-5.68-.25-11.8-.11-17.51-.08l-.02-82.95v.02ZM641.3,634.85c6.81-.1,13.76.66,19.19-3.51,4.04-4.63,4.87-12.8-.03-17.2-4.65-4.18-13.39-2.45-19.31-2.99-.04,7.97-.04,15.74.15,23.71h0Z"/>
  <path class="st3" d="M871.19,707.87c6.27-.5,12.85-.11,19.15-.26,9.41-.22,16.95.08,25.56,4.52,7.08,4.46,13.87,13.79,14.74,22.26,3.71,15.42-1.9,34.48-16.83,41.55-11.8,5.59-29.53,3.76-42.62,4.02.51-23.17-.04-48.66,0-72.1h0ZM886.72,765.81c9.14-.07,15.79.82,22.94-5.67,7.69-8.43,7.89-25.91-.66-33.9-5.73-5.35-15-4.52-22.33-4.42l.05,43.98h0Z"/>
  <path class="st3" d="M915.9,712.14c7.08,4.46,13.87,13.79,14.74,22.26-1.55.36-1.79-6.51-3.49-8.15l-.31.92c-1.56-1.59-2.28-4.69-3.56-6.65-1.72-2.65-7.32-5.3-7.37-8.38h-.01Z"/>
  <path class="st3" d="M694.56,595.96l17.24-.04c1.24,1.8,9.12,13.55,9.77,15.37,3.14,4.97,7.01,10.75,9.89,15.73,5.17,7.77,9.55,14.98,14.18,23.06.07-17.49.35-36.79-.2-54.22,5.66-.02,11.17.02,16.83.14.63,1.02.37,12.68.36,14.83v45.47c.01,3.81.48,20.07-.32,22.36-.44.12-.7.23-1.15.24-4.04-.28-12.03-.02-16.34,0-1.54-2.18-4.49-6.65-5.59-8.94-2.19-2.98-5.77-8.93-7.56-12.17-5.06-6.73-9.77-15.57-14.43-22.72-1.71-2.63-3.45-6.08-5.34-8.48-.69,7.19.12,20.51.08,28.38-.03,4.51-.23,20.53.29,23.91-4.8.05-13.1.25-17.76-.09.34-3.07.19-8.81.19-12.03l-.03-20.89c0-15.37.58-34.76-.09-49.92h-.02Z"/>
  <path class="st3" d="M762.27,596c.63,1.02.37,12.68.36,14.83v45.47c.01,3.81.48,20.07-.32,22.36-.44.12-.7.23-1.15.24.77-.87.04-1.81.13-3.3,0-2.17.66-5.03.42-7.16-1.24-10.99-.49-21.8-.64-32.82-.16-12.29-.51-24.69.06-36.97.03-.62.82-2.08,1.14-2.65h0Z"/>
  <path class="st3" d="M694.49,678.8c.34-3.07.19-8.81.19-12.03l-.03-20.89c0-15.37.58-34.76-.09-49.92.36.46.85,1.06,1.44,1.8.41,25.49.55,51.38-.05,76.85-.04,1.73-.96,3.33-1.46,4.19h0Z"/>
  <path class="st3" d="M721.56,611.29c3.14,4.97,7.01,10.75,9.89,15.73-.62.19-.77.13-1.41-.01-3.34-2.81-6.38-9.09-8.3-13.04-.77-1.58-.67-1.37-.18-2.68h0Z"/>
  <path class="st3" d="M731.66,657.8c2.98.68,7.39,8.35,7.93,11.24l-.37.93c-2.19-2.98-5.77-8.93-7.56-12.17h0Z"/>
  <path class="st3" d="M565.94,595.94c6.51-.11,13.31,0,19.84.02,1.84,3.85,3.51,9.46,4.95,13.63l7.72,22.44,7.51,21.07c.88,2.5,3.19,8.85,3.75,11.31,1.97,4.35,3.35,9.77,5.37,14.44-6.44.06-12.77.06-19.21-.02-1.85-5.93-4.29-12.98-5.65-18.92-8.57.42-18.82-.24-27.84.05l-5.97,19.05c-5.99-.24-13.01-.09-19.08-.09l17.19-49.9c3.48-10.23,7.49-23.21,11.43-33.08h0ZM567.17,645c3.6-.18,15.41-.51,18.54.23-1.14-2.5-2.98-8.99-3.83-11.77l-6.01-19.01c-1.16,3.51-9.31,29.03-8.7,30.55h0Z"/>
  <path class="st3" d="M609.7,664.4c-.13.41-.03.22-.4.54-3.5-8.79-9.54-21.72-11.64-31.53-.14-.64.34-.94.78-1.38l7.51,21.07c.88,2.5,3.19,8.85,3.75,11.31h0Z"/>
  <path class="st3" d="M567.17,645c3.6-.18,15.41-.51,18.54.23-1.93,2.38-13.81,1.87-16.8,1.04-.51-.14-1.33-.87-1.74-1.27h0Z"/>
  <path class="st3" d="M653.89,707.58c3.06.19,13.9-.45,14.96.22l.52.71c-.55,3.27-.29,20.51-.24,24.59.2,15.49-.26,31.38.05,46.8-5.53-.02-11.5.06-16.99-.25-3.53-6.52-8.55-14.25-12.49-20.62l-16.13-26.35c.61,14.5.26,29.14.5,43.66.02,1.22,0,2.38.11,3.6-3.3-.03-11.71.17-14.41-.31l-.97-.26c-.39-1.24-.14-13.71-.15-15.97v-55.71l8.77.04c3.27-.1,5.53-.05,8.8.15,1.33,2.18,5.44,8.69,6.27,10.69,1.86,2.77,5.18,7.71,6.61,10.7,2.07,1.79,12.19,20.1,15.05,24.01-.63-13.23-.47-26.57-.64-39.82-.02-1.95-.05-3.98.4-5.89h-.02Z"/>
  <path class="st3" d="M608.64,707.69l8.77.04c-3.03.48-5.22-.15-6.98,1.93-.74,2-.37,10.53-.35,13.31l-.04,38.02c0,2.73.17,16.61-.28,18.64l-.97-.26c-.39-1.24-.14-13.71-.15-15.97v-55.71h0Z"/>
  <path class="st3" d="M653.89,707.58c3.06.19,13.9-.45,14.96.22l.52.71c-1.18,1.12-2.77,1.19-4.34,1.06-3.74-.32-8.36.72-11.13-1.99h-.01Z"/>
  <path class="st3" d="M632.48,718.58c1.86,2.77,5.18,7.71,6.61,10.7-2.33-1.14-5.02-4.29-6.55-6.26l-.06-4.44Z"/>
  <path class="st3" d="M471.61,707.76c8.75-.35,25.63-.28,33.92.34,14.06,2.89,19.71,13.83,17.23,27.71-1.45,8.11-6.66,12.54-13.47,16.48,4.85,8.07,9.61,16.13,14.22,24.34.61,1.08,1.27,2.13,2.01,3.13l-18.46.03c-3.73-8.08-9.09-16.43-13.23-24.6-2.12.12-4.46.3-6.56.21.38,8.16-.1,16.47.32,24.5-5.28-.05-10.86-.2-16.11-.04.92-9.64-.12-24.48.3-35.03-.41-12.05.02-24.85-.17-37.05v-.02ZM487.34,741.82c5.7-.02,11.58.53,16.4-2.78.77-.98,1.79-2.23,2.12-3.42,4.4-15.96-8.93-14.26-18.69-14.35.15,6.19.53,14.45.17,20.56h0Z"/>
  <path class="st3" d="M471.61,707.76c8.75-.35,25.63-.28,33.92.34-4.21,2.19-26.16.94-32.95,1.35-.84,10.01,1.1,26.85-.8,35.37-.41-12.05.02-24.85-.17-37.05h0Z"/>
  <path class="st3" d="M842.94,707.81c3.15-.21,5.92-.15,9.06-.1l6.65-.04c-.22,22.98-.57,49.31-.03,72.18-3.12-.04-6.23-.09-9.35-.07.85-.25,1.17-.31,1.92-.8l-1.71-.65c-2.31.05-5.43,0-7.59.58-.91-2.35-5.13-8.79-6.62-11.18l-14.28-22.74c-2.11-3.38-5.61-8.68-7.29-12.1-.02,9.65.09,19.19.36,28.84.17,6.12-.13,12.17.56,18.26-3.23-.1-11.66-.42-14.5.08l-1.18-.35c-.48-.8-.23-13.38-.23-15.23l-.02-49.95-.03-6.69c4.53-.4,12.11-.19,16.61.02,2.68,3.06,10.06,15.74,12.6,19.92,5.01,8.23,11.22,17.31,15.86,25.54-.4-14.88-.97-30.7-.81-45.52h.02Z"/>
  <path class="st3" d="M852,707.71l6.65-.04c-.22,22.98-.57,49.31-.03,72.18-3.12-.04-6.23-.09-9.35-.07.85-.25,1.17-.31,1.92-.8l-1.71-.65c2.29.04,4.84-.1,7.15-.18.64-13.01.09-27.96.28-41.17.09-6.15.43-21.88-.15-27.47-.79-1.07-3.32-1.45-4.76-1.8h0Z"/>
  <path class="st3" d="M798.7,714.54c2.38,4.78,1.67,27.52,1.66,34.04l-.22,23.75c-.04,2.43.13,5.45,0,7.74l-1.18-.35c-.48-.8-.23-13.38-.23-15.23l-.02-49.95h-.01Z"/>
  <path class="st3" d="M480.38,596.08c15.82-.79,34.11.12,50.25-.23-.08,2.59,0,5.18.05,7.77-1.56,1.56-1.53,3.83-1.72,6.01-6.56.21-13.13.42-19.69.58-1.54.04-2.97.51-4.73.61l-.38.44c-2.02.08-4.62.25-6.6.21.02,3.18.3,14.92-.32,17.56,9.63-.77,20.75.13,30.41-.39,0,5.12-.02,10.19.07,15.31-7.24-.03-23.7.41-30.26-.14.29,2.93.32,16.48.07,19.68,2.53-.5,7.19-.28,9.88-.34,7.53-.17,15.84.36,23.29-.19v16.01c-16.46-.37-33.87-.09-50.42-.09.3-9.48.1-20.09.08-29.63l.02-53.16h0Z"/>
  <path class="st3" d="M497.24,629.03c9.63-.77,20.75.13,30.41-.39-.41.31-1.82,1.31-2.18,1.37-3.94.69-25.28,1.01-27.88-.09l-.35-.89h0Z"/>
  <path class="st3" d="M497.53,663.48l-.9.12c-1.07-1.46-1.18-17.79.83-19.8.29,2.93.32,16.48.07,19.68Z"/>
  <path class="st3" d="M744.23,707.6c10.33.2,20.75-.03,31.09.04,2.32.02,11.3-.18,13.03.24.54.93.33,1.59.17,2.67-.46,3-.98,5.98-1.87,8.89-7.24.96-20.6-.21-25.29,2.27-1.1.06-2.21-.1-2.93.49-.21,4.48.15,9.44-.12,13.62,7.44-.06,18.97-.36,26.24.06-.32,3.17-.61,11.16-.02,14.17-7.09.02-19.2.4-26.06-.15,0,4.71.14,11.28-.13,15.91l30.43-.04c-.24,4.68-.13,9.4-.07,14.1l-46.15-.1.11-5.53c-.52-14.89.17-49.88.23-66.06,0-.18,1.01-.46,1.34-.57h0Z"/>
  <path class="st3" d="M742.67,774.24c-.52-14.89.17-49.88.23-66.06,0-.18,1.01-.46,1.34-.57-.46.77-.82,1.74-.82,2.84.06,11.86-.07,23.7.09,35.55,0,.05.12.38.14.44.36-1.83.03-7.33.1-9.61.28-8.75-.42-18.91.18-27.54.57,5.59.59,61.34-.46,64.18l-.8.77h0Z"/>
  <path class="st3" d="M419.85,595.9c5.93,0,11.86.16,17.79-.01.31,22.03.09,44.85,0,66.91h31.5c-.21,3.29.38,14.33-.33,16.3-3.82.16-10.86-.17-15.01-.19h-34.11c.38-7.91.09-16.97.16-24.96.15-19.3-.3-38.76,0-58.05h0Z"/>
  <path class="st3" d="M419.8,707.64h43.32c-.18,3.56,0,8.51.01,12.17-2.77,1.22-23.82-1.75-27.53,1.88.15,5,.12,10.07.13,15.07l4.07.03c2.49-.01,18.09-.35,19.54.31l.21.86c.07,4.45.03,8.79-.02,13.24-5.26-.63-18.07-.31-23.9-.31.38,9.92.05,19.32.23,29.06l-16.42-.28c.69-6.25.33-18.6.34-25.42l.03-46.62h-.01Z"/>
  <path class="st3" d="M439.81,736.79c2.49-.01,18.09-.35,19.54.31l.21.86c-1.93.79-12.08.91-14.58.72-2.77-.21-3.48.01-5.17-1.9h0Z"/>
  <path class="st3" d="M677.33,707.81c4.82-.42,13.78-.15,18.97-.15h38.02c-.11,4.6-.03,9.19-.16,13.83-4.01-2.03-15.24-1.82-19.2.21l-.95-.04c-.63,1.02-.41.99-.42,2.38-.02,17.2-.61,38.95.09,55.83-3.57-.03-7.18-.08-10.75-.05-1.41.07-4.11.43-5.2-.2l-.15-.84c.31-5.69.08-13.34.07-19.15l-.05-37.91c-6.77,0-13.48-.03-20.25.18.12-4.5,0-9.56-.02-14.1h0Z"/>
  <path class="st3" d="M712.15,778.09c-.57-6.28-.01-16.66-.11-23.42-.14-8.95,0-18.86.45-27.79.05-.99.56-2.02,1.1-2.84-.02,17.2-.61,38.95.09,55.83-3.57-.03-7.18-.08-10.75-.05-1.41.07-4.11.43-5.2-.2l-.15-.84c2.14-.18,5.19-.54,7.26-.41,2.82-.24,4.46-.32,7.31-.28Z"/>
  <path class="st3" d="M817.61,631.95l.57.34c.28,5.37.2,11.23.24,16.64-12.56-.6-27.87-.35-40.56-.14l-.93-.3c-.51-1.19-.24-13.97-.23-16.42,12.52.17,28.47.29,40.91-.12Z"/>
  <path class="st3" d="M813.91,633.87c.63-.05,1.28.03,1.91.08,1.59,1.84,1.05,10.32.93,13.13l-34.6-.02c-1.75.01-2.46.25-3.67-.67-1.37-2.76-.16-8.42-.14-12.36,10.98.18,24.7.33,35.57-.16Z"/>
  <path class="st3" d="M786.65,719.45c.89-2.91,1.41-5.89,1.87-8.89l.13,11.3c-9.06-.25-18.23-.21-27.29-.14,4.69-2.47,18.05-1.31,25.29-2.27h0Z"/>
  <path class="st3" d="M435.6,721.69c3.71-3.63,24.76-.66,27.53-1.88l-.13,1.35c-.16.13-.36.29-.58.48-6.59,0-20.93.28-26.83.05h0Z"/>
  <path class="st3" d="M528.96,609.62c.19-2.18.16-4.45,1.72-6.01l-.03,7.75-17.9.03c-1.53,0-7.35.07-8.59-.13l.38-.44c1.76-.1,3.19-.58,4.73-.61,6.56-.16,13.13-.37,19.69-.58h0Z"/>
  <path class="st3" d="M714.96,721.7c3.95-2.03,15.18-2.24,19.2-.21-1.48.59-16.41.22-19.2.21Z"/>
  <path class="st3" d="M841.89,778.91c2.16-.59,5.28-.53,7.59-.58l1.71.65c-.75.49-1.07.55-1.92.8-2.27.1-5.69.58-7.37-.87h-.01Z"/>
</svg>