<?xml version="1.0" encoding="UTF-8"?>
<svg id="Layer_1" xmlns="http://www.w3.org/2000/svg" version="1.1" viewBox="0 0 1024 1024">
  <!-- Generator: Adobe Illustrator 29.4.0, SVG Export Plug-In . SVG Version: 2.1.0 Build 152)  -->
  <defs>
    <style>
      .st0 {
        fill: #fff;
      }

      .st1 {
        fill: #7841ca;
      }
    </style>
  </defs>
  <path class="st1" d="M172.61,479.1c66.83-5.66,125.57,43.98,131.15,110.82,5.58,66.84-44.13,125.53-110.98,131.01-66.73,5.49-125.29-44.12-130.86-110.84-5.57-66.72,43.97-125.34,110.69-130.99ZM131.67,662.62c.04-17.19-3.04-42.07,9.52-55.75,9.05-9.88,23.81-7.85,35.77-6.22.75-4.48,2-10.23-.86-14.22-2.32-3.18-6.29-4.67-10.1-4.95-16.23-1.22-31.46,6.66-40.67,19.83-11.73,16.77-12.24,35.02-11.74,54.64.19,7.4-.4,12.97,4.28,19.36,6.41,3.99,13.98,3.79,21.16,1.88,20.38-5.38,31.72-15.42,42.6-32.59,19.8-31.22,18.7-80.39,53.41-99.7.41,15.99,3.58,43.7-6.2,56.98-4.95,6.71-19.54,3.07-26.55,1.31-2.16,8.68-4.73,16.47,6.73,19.15,20.18,4.7,38.25-8.93,41.27-29.13,2.51-16.77.88-38.12,1.02-55.34.08-9.67-5.19-13.35-14.63-12.43-12.01,3.64-17.39,7.93-26.35,16.34-36.15,33.95-23.6,106.04-78.64,120.83h-.01Z"/>
  <path class="st0" d="M399.15,549.32c5.89.03,12.02.15,17.89.08l.02,91.37-19.75-.04c-12.47-22.48-26.33-44.43-38.74-66.83,1.75,22.81,1.37,43.98,1.37,66.87h-18.88c.19-10.34.17-20.54.12-30.88.63-9.36-1.42-55.18.37-60.37,7.38-.12,15.01.01,22.3-.17,10.74,17.16,25.65,44.47,35.3,62.92.31-20.86-.45-42.09-.02-62.95h.02Z"/>
  <path class="st0" d="M894.46,549.29l18.13-.07c-.26,11.1-.29,22.38-.39,33.49,29.58-32.04,66.41,18.75,38.2,51.89-13.55,11.15-28.23,10.4-39.33-3.4.08,3.04-.04,6.5-.08,9.55l-16.61.02c.93-28.97-.06-62.02.08-91.47h0ZM929.11,627.27c4.55-1.34,8.04-3.24,10.07-7.72,5.72-12.63,2.95-32.2-14.43-31.37-4.37,1.2-8.03,3.18-9.99,7.46-5.85,12.71-3.42,32.47,14.35,31.63Z"/>
  <path class="st0" d="M685.18,584.81c15.48-23.7,45.38-10.75,43.23,17.23-.84,10.93-.06,27.38-.04,38.75-5.89-.08-11.96.03-17.86.06.06-9.99,2.34-42.44-3.49-48.99-1.97-2.22-5.26-3.28-8.16-3.37-2.62-.08-4.89.95-6.66,2.86-6.98,7.5-4.67,28.81-4.59,38.9l.03,10.52-18.03.04c.08-9.07.2-18.13.18-27.26-.24-6.42,1.3-17.75-4.03-22.42-7.24-6.35-16.43-.66-17.59,8.01-1.01,7.48-.49,13.81-.5,21.06-.01,7.02.03,13.73.04,20.6h-18.56c.76-20.51.11-46.02.08-66.73,5.85.06,11.74-.06,17.58-.12.18,3.17.1,6.31.07,9.47,5.03-6.34,7.78-8.91,15.7-10.28,11.63-.97,16.37,2.7,22.61,11.69h.01Z"/>
  <path class="st0" d="M738.54,549.31c4.65.34,13.14.13,18.05.16.04,11.57-.22,23.75.2,35.27l38.2.04.1-35.35h18.4l-.02,91.37-6.82-.03-11.61.03.02-39.22-38.38.06c-.3,12.79.01,26.22-.15,39.15l-18.01.02v-91.5h.01Z"/>
  <path class="st0" d="M454.41,573.12c27.2-2.68,35.69,15.23,35.44,38.61-14.16-.45-30.75-.26-44.98-.03v.55c.54,17,17.46,22.32,28.2,8.37,3.45-.21,7.04-.11,10.51-.09l4.96.19.85,1.14c.52,7.97-14.34,18.74-21.69,19.96-17.83,2.96-36.91-5.23-40.17-24.8-3.46-20.81,4.44-40.03,26.89-43.9h0ZM444.93,599.39l15.1-.11,12.36.07c-2.74-8.79-4.93-12.7-15.07-12.8-8.29,1.51-10.07,5.08-12.39,12.85h0Z"/>
  <path class="st0" d="M559.28,574.11c5.95.02,11.94-.09,17.89-.16l-.08,26.96c-.02,8.5-1.97,24.14,9.68,25.73,6.18,1.14,12.85-4.55,13.44-10.7,1.28-13.25.59-28.51.52-41.83l17.93-.06v24.42l.13,42.29h-16.65c-.25-2.86-.25-6.69-.32-9.63-9.52,11.97-24.07,15.33-36.26,5.39-7.93-6.47-6.34-22.9-6.32-32.17l.06-30.23h0Z"/>
  <path class="st0" d="M866.19,574c5.85.12,12.02.04,17.89.06v22.86l.06,43.86-16.51-.03c-.22-2.79-.22-6.25-.3-9.09-5.52,6.52-10.42,10.47-19.45,10.67-9.96.82-21.19-6.45-22.29-17.12-1.67-16.23-.59-34.63-.82-51.12h17.85l-.08,26.33c-.02,8.67-1.74,25.22,9.96,26.34,15.86,1.51,13.92-17.31,13.81-27.45-.1-8.69-.09-16.89-.1-25.28v-.02Z"/>
  <path class="st0" d="M489.62,573.46c4.94.93,15.46.59,20.85.57,3.74,7.64,7.82,15.1,11.57,22.86,3.84-7.65,7.72-15.65,12.01-23.02,6.14.31,13.45.17,19.7.19-5.66,9.79-14.54,22.69-20.8,32.51,6.53,10.93,15.09,22.95,22.07,34.1-6.65.21-14.18.06-20.89.07-4.04-7.41-8.25-14.81-12.4-22.16-4.16,7.29-8.14,14.81-12.13,22.21l-20.22-.02c5.61-9.81,15.52-23.84,22.01-33.49-6.7-9.03-15.88-24.08-21.76-33.81h-.02Z"/>
</svg>