<?xml version="1.0" encoding="UTF-8"?>
<svg id="Layer_1" xmlns="http://www.w3.org/2000/svg" version="1.1" viewBox="0 0 1024 1024">
  <!-- Generator: Adobe Illustrator 29.4.0, SVG Export Plug-In . SVG Version: 2.1.0 Build 152)  -->
  <defs>
    <style>
      .st0 {
        fill: #297da9;
      }
    </style>
  </defs>
  <g id="Capa_2">
    <g id="Capa_1-2">
      <path class="st0" d="M301.04,461.26h-33.09c-12.51-28.1-45.43-40.74-73.53-28.23-12.58,5.6-22.64,15.66-28.23,28.23h-33.06c-39.27.04-71.09,31.87-71.13,71.13v167.92c0,39.18,31.63,71,70.81,71.24h0c2.92.43,16.22,1.62,31.12-10.41,21.63-17.41,47.18-63.7,47.75-185.09h10.81c.57,121.39,26.2,167.62,47.75,185.09,7.6,6.61,17.26,10.37,27.33,10.65,1.27.01,2.53-.07,3.79-.24h0c39.13-.24,70.75-32,70.81-71.13v-168.03c-.04-39.26-31.85-71.07-71.1-71.13h-.03ZM217.1,436.58c26.13.01,47.3,21.21,47.29,47.34-.01,26.13-21.21,47.3-47.34,47.29-26.12-.01-47.29-21.19-47.29-47.31.04-26.12,21.22-47.28,47.34-47.31h0ZM159.05,754.22c-5.29,4.61-11.74,7.67-18.65,8.84h-7.3c-34.63-.06-62.68-28.12-62.72-62.75v-167.92c.03-34.64,28.11-62.72,62.75-62.75h30.12c-2.49,9.34-2.49,19.18,0,28.52h-12.36c-28.71.01-51.98,23.28-51.99,51.99v132.48c.03,28.71,23.28,51.97,51.99,52.02h24.33c-4.19,7.43-9.67,14.05-16.17,19.57h0ZM179.57,726.18h-28.69c-24.09-.03-43.61-19.55-43.64-43.64v-17.44h89.73c-4.33,27.06-10.63,46.77-17.41,61.07h.01ZM198.25,656.73h-52.45l7.33-21.33h47.53c-.67,7.55-1.47,14.66-2.41,21.33ZM202.96,597.25h-10.38l2.7-21.36h8.11c-.11,7.46-.22,14.52-.43,21.41v-.05ZM202.58,605.69c-.32,7.46-.74,14.57-1.24,21.33h-30.52l4.92-21.33h26.85,0ZM191.76,567.59c-2.09,0-3.86,1.55-4.14,3.62l-3.41,26.09h-11.84c-1.95,0-3.64,1.34-4.08,3.24l-6.06,26.47h-12.09c-1.76-.02-3.34,1.06-3.97,2.7l-9.22,26.87h-29.74v-106.44c.07-24.07,19.6-43.54,43.66-43.55h15.3c12.51,28.1,45.43,40.74,73.53,28.23,12.58-5.6,22.64-15.66,28.23-28.23h15.33c24.07.01,43.59,19.49,43.66,43.55v106.58h-29.74l-9.25-26.87c-.61-1.64-2.19-2.72-3.95-2.7h-12.09l-6.08-26.6c-.44-1.9-2.13-3.24-4.08-3.24h-11.73l-3.38-26.09c-.28-2.08-2.06-3.63-4.16-3.62h-50.72.02ZM230.94,575.95h8.11l2.7,21.36h-10.54c-.22-6.83-.34-13.95-.38-21.36h.11ZM231.61,605.69h27.04l4.89,21.33h-30.77c-.52-6.76-.95-13.87-1.27-21.33h.11ZM233.59,635.42h47.39l7.33,21.33h-52.4c-.92-6.69-1.73-13.81-2.43-21.36l.11.03h0ZM237.26,665.16h89.68v17.44c-.03,24.09-19.55,43.61-43.64,43.64h-28.74c-6.87-14.36-13.06-34.07-17.41-61.13l.11.05h0ZM363.9,700.31c-.04,34.64-28.11,62.71-62.75,62.75h-7.43c-6.9-1.17-13.34-4.23-18.6-8.84-6.53-5.54-12.02-12.2-16.22-19.66h24.33c28.71-.04,51.96-23.31,51.99-52.02v-132.48c-.06-28.65-23.28-51.86-51.94-51.91h-12.36c2.45-9.35,2.45-19.17,0-28.52h30.12c34.64.03,62.72,28.11,62.75,62.75l.11,167.92h0Z"/>
      <path class="st0" d="M217.07,513.06c-16.11,0-29.17-13.06-29.17-29.17s13.06-29.17,29.17-29.17,29.17,13.06,29.17,29.17h0c-.01,16.1-13.07,29.16-29.17,29.17h0ZM217.07,463.1c-11.48,0-20.79,9.31-20.79,20.79s9.31,20.79,20.79,20.79,20.79-9.31,20.79-20.79c0-11.48-9.31-20.78-20.79-20.79Z"/>
      <path class="st0" d="M447.52,606.87c-4.81.05-9.6-.6-14.22-1.92-4.1-1.19-7.97-3.09-11.41-5.62-3.39-2.56-6.39-5.59-8.92-9l11.3-12.84c2.97,4.57,6.98,8.37,11.71,11.08,3.91,1.98,8.24,2.99,12.63,2.95,2.26.04,4.52-.33,6.65-1.08,1.76-.58,3.35-1.6,4.62-2.95,1.11-1.23,1.71-2.83,1.68-4.49.02-1.23-.27-2.45-.84-3.54-.59-1.11-1.4-2.09-2.38-2.89-1.16-.89-2.41-1.65-3.73-2.27-1.56-.72-3.16-1.31-4.81-1.78-1.89-.55-3.81-.97-5.76-1.27-4.03-.89-7.97-2.16-11.76-3.79-3.1-1.27-5.95-3.1-8.38-5.41-2.21-2.14-3.93-4.73-5.03-7.6-1.12-3.04-1.67-6.25-1.62-9.49-.02-3.48.8-6.91,2.41-10,1.6-3.16,3.88-5.93,6.68-8.11,2.93-2.32,6.27-4.07,9.84-5.16,3.82-1.23,7.81-1.84,11.81-1.81,4.56-.08,9.11.49,13.52,1.68,7.16,1.99,13.29,6.63,17.14,12.98l-11.41,11.03c-1.53-2.12-3.35-4.02-5.41-5.65-1.91-1.48-4.06-2.63-6.35-3.41-2.27-.75-4.64-1.14-7.03-1.14-2.32-.06-4.64.29-6.84,1.03-1.74.55-3.3,1.58-4.49,2.97-1.07,1.3-1.65,2.94-1.62,4.62-.03,1.36.34,2.7,1.08,3.84.8,1.2,1.86,2.21,3.11,2.95,1.55.92,3.2,1.67,4.92,2.22,2.08.68,4.2,1.24,6.35,1.68,4.07.78,8.05,1.95,11.9,3.49,3.25,1.28,6.3,3.04,9.03,5.22,5.09,3.94,8.01,10.06,7.87,16.49.18,5.19-1.26,10.31-4.11,14.65-2.81,4.07-6.72,7.26-11.27,9.19-5.33,2.22-11.07,3.29-16.84,3.16h-.02Z"/>
      <path class="st0" d="M517.36,606.87c-5.09.07-10.08-1.44-14.27-4.33-4.34-2.96-7.82-7.02-10.08-11.76-5-10.8-5-23.26,0-34.07,2.32-4.72,5.85-8.74,10.25-11.63,4.4-2.82,9.54-4.28,14.76-4.19,2.92-.05,5.83.42,8.6,1.38,2.48.84,4.8,2.11,6.84,3.76,1.92,1.54,3.59,3.37,4.97,5.41,1.34,2.06,2.31,4.34,2.87,6.73l-3.46-.51v-15.46h16.92v63.48h-17.17v-15.28l3.84-.35c-.66,2.28-1.71,4.43-3.11,6.35-1.51,2.08-3.33,3.9-5.41,5.41-2.19,1.58-4.61,2.83-7.16,3.7-2.7.92-5.53,1.38-8.38,1.35h-.01ZM522.03,592.11c6,.22,11.53-3.22,13.98-8.71,1.38-3.03,2.05-6.33,1.97-9.65.08-3.26-.6-6.5-1.97-9.46-1.25-2.57-3.17-4.76-5.57-6.33-2.51-1.6-5.43-2.41-8.41-2.35-2.88-.04-5.7.78-8.11,2.35-2.41,1.6-4.35,3.82-5.6,6.43-1.41,2.95-2.1,6.19-2.03,9.46-.08,3.33.62,6.63,2.03,9.65,1.22,2.63,3.16,4.86,5.6,6.43,2.43,1.5,5.25,2.25,8.11,2.16h0v.02Z"/>
      <path class="st0" d="M599.3,606.87c-11.53.19-22.19-6.07-27.66-16.22-5.52-10.6-5.52-23.22,0-33.82,5.49-10.1,16.16-16.29,27.66-16.06,5.36-.07,10.67.99,15.6,3.11,4.39,1.84,8.21,4.84,11.03,8.68l-9.35,11.27c-1.19-1.58-2.6-2.97-4.19-4.14-1.67-1.21-3.48-2.2-5.41-2.95-1.94-.71-3.99-1.07-6.06-1.08-3.07-.05-6.08.76-8.71,2.35-2.53,1.56-4.58,3.77-5.95,6.41-1.48,2.9-2.22,6.12-2.16,9.38-.05,3.18.71,6.31,2.22,9.11,1.41,2.66,3.5,4.9,6.06,6.49,2.6,1.6,5.6,2.43,8.65,2.38,1.99.02,3.96-.27,5.87-.84,1.89-.6,3.66-1.51,5.24-2.7,1.66-1.26,3.17-2.71,4.49-4.33l9.22,11.27c-2.97,3.68-6.82,6.56-11.19,8.35-4.83,2.17-10.06,3.3-15.36,3.33h0Z"/>
      <path class="st0" d="M673.33,606.87c-2.75,0-5.48-.4-8.11-1.19-2.54-.77-4.96-1.88-7.19-3.3-2.05-1.3-3.88-2.92-5.41-4.81-1.34-1.61-2.26-3.52-2.7-5.57l3.84-1.43-.84,14.87h-16.09v-88.54h17.17v40.18l-3.35-1.32c.5-2.03,1.42-3.92,2.7-5.57,1.44-1.87,3.19-3.49,5.16-4.79,2.1-1.44,4.41-2.55,6.84-3.3,2.48-.81,5.07-1.21,7.68-1.19,5.24-.08,10.39,1.4,14.79,4.24,4.42,2.89,7.97,6.93,10.27,11.68,2.56,5.32,3.82,11.16,3.7,17.06.11,5.88-1.13,11.71-3.65,17.03-2.25,4.75-5.75,8.8-10.14,11.71-4.36,2.85-9.47,4.33-14.68,4.24h.01ZM669.24,592.36c2.94.07,5.84-.74,8.33-2.33,2.41-1.62,4.35-3.86,5.6-6.49,1.41-3.02,2.1-6.32,2.03-9.65.07-3.31-.6-6.59-1.97-9.6-1.19-2.65-3.13-4.91-5.57-6.49-5.19-3.07-11.63-3.07-16.82,0-2.44,1.58-4.38,3.83-5.57,6.49-2.65,6.14-2.65,13.11,0,19.25,1.22,2.63,3.15,4.88,5.57,6.49,2.52,1.58,5.44,2.39,8.41,2.33h-.01Z"/>
      <path class="st0" d="M744.7,606.87c-6.28.15-12.49-1.29-18.06-4.19-4.99-2.65-9.15-6.64-12-11.52-2.88-5.13-4.35-10.93-4.24-16.82-.06-4.62.75-9.21,2.41-13.52,1.51-3.95,3.79-7.56,6.7-10.63,2.91-3,6.41-5.36,10.27-6.95,4.09-1.67,8.48-2.51,12.9-2.46,4.13-.05,8.21.77,12,2.41,3.59,1.54,6.83,3.8,9.52,6.65,2.7,2.91,4.78,6.33,6.14,10.06,1.46,4.01,2.11,8.26,1.92,12.52l-.14,5.41h-50.94l-2.7-10.46h39.72l-1.92,2.16v-2.7c-.14-2.1-.86-4.12-2.08-5.84-1.25-1.71-2.88-3.09-4.76-4.06-2-1.03-4.22-1.55-6.46-1.51-3.11-.09-6.19.61-8.95,2.05-2.45,1.33-4.41,3.39-5.62,5.89-1.37,3.02-2.03,6.31-1.92,9.62-.1,3.48.75,6.92,2.46,9.95,1.63,2.81,4.05,5.08,6.95,6.54,3.3,1.63,6.95,2.42,10.63,2.33,2.62.03,5.22-.41,7.68-1.3,2.7-1.12,5.21-2.66,7.43-4.57l8.11,11.41c-2.26,2.08-4.79,3.86-7.52,5.27-2.76,1.38-5.66,2.44-8.65,3.16-2.9.72-5.88,1.09-8.87,1.08v.02ZM733.56,534.42l-5.16-7.92,20.03-16.44,8.52,11.76-23.39,12.6h0Z"/>
      <path class="st0" d="M437.79,713.21v-67.78h-24.33v-16.22h67.59v16.22h-25.2v67.78h-18.06Z"/>
      <path class="st0" d="M486.26,713.21v-63.48h16.41l.59,20.39-2.87-4.19c.95-3.26,2.54-6.31,4.68-8.95,2.08-2.59,4.68-4.73,7.62-6.27,2.82-1.5,5.97-2.28,9.17-2.27,2.46,0,4.89.4,7.22,1.19l-4.57,18.71c-1.08-.55-2.23-.98-3.41-1.27-1.4-.35-2.83-.53-4.27-.54-1.85-.02-3.69.33-5.41,1.03-1.6.65-3.04,1.63-4.24,2.87-1.17,1.29-2.09,2.78-2.7,4.41-.69,1.72-1.04,3.55-1.03,5.41v32.88l-17.19.11v-.03Z"/>
      <path class="st0" d="M559.94,714.4c-5.09.06-10.08-1.45-14.27-4.33-4.34-2.96-7.82-7.02-10.08-11.76-5-10.8-5-23.26,0-34.07,2.34-4.75,5.91-8.78,10.35-11.65,4.4-2.83,9.53-4.29,14.76-4.19,2.92-.04,5.82.42,8.57,1.38,2.48.84,4.8,2.11,6.84,3.76,1.92,1.54,3.6,3.36,4.97,5.41,1.35,2.06,2.33,4.34,2.89,6.73l-3.62-.62v-15.33h16.95v63.48h-17.14v-15.25l3.84-.35c-.68,2.29-1.76,4.44-3.19,6.35-1.51,2.08-3.33,3.9-5.41,5.41-2.19,1.57-4.59,2.82-7.14,3.7-2.68.9-5.5,1.35-8.33,1.32h.01ZM564.61,699.64c2.96.08,5.89-.71,8.41-2.27,2.43-1.56,4.37-3.78,5.57-6.41,1.38-3.04,2.05-6.35,1.97-9.68.07-3.26-.6-6.5-1.97-9.46-1.24-2.63-3.19-4.86-5.62-6.43-2.51-1.59-5.44-2.4-8.41-2.33-2.87-.05-5.7.76-8.11,2.33-2.4,1.6-4.33,3.83-5.57,6.43-1.43,2.95-2.13,6.19-2.05,9.46-.08,3.34.62,6.66,2.05,9.68,1.22,2.62,3.15,4.84,5.57,6.41,2.44,1.54,5.28,2.33,8.16,2.27h0Z"/>
      <path class="st0" d="M614.28,713.21v-63.48h16.22l.46,12.95-3.35,1.43c.92-2.96,2.56-5.65,4.76-7.84,2.32-2.4,5.07-4.33,8.11-5.7,3.16-1.42,6.59-2.15,10.06-2.14,4.2-.15,8.37.84,12.06,2.87,3.32,2.02,5.9,5.06,7.33,8.68,1.77,4.57,2.6,9.45,2.46,14.36v38.88h-17.03v-37.55c.07-2.46-.33-4.91-1.19-7.22-.69-1.79-1.99-3.27-3.68-4.19-1.88-.92-3.97-1.33-6.06-1.19-1.84-.03-3.67.27-5.41.89-1.58.59-3.02,1.51-4.22,2.7-1.12,1.11-2.04,2.41-2.7,3.84-.68,1.46-1.03,3.06-1.03,4.68v38.17h-17.03l.24-.14Z"/>
      <path class="st0" d="M710.26,714.4c-5.4.1-10.76-.89-15.76-2.92-4.31-1.75-8.13-4.54-11.11-8.11l10.68-9.11c2.21,2.51,4.99,4.46,8.11,5.68,2.9,1.14,5.99,1.74,9.11,1.76,1.11.02,2.23-.13,3.3-.43.97-.23,1.88-.63,2.7-1.19.69-.5,1.24-1.16,1.62-1.92.36-.77.54-1.61.54-2.46.06-1.65-.76-3.21-2.16-4.08-1.19-.66-2.44-1.2-3.73-1.62-1.68-.59-3.84-1.27-6.46-1.97-3.58-.86-7.06-2.09-10.38-3.68-2.55-1.14-4.86-2.73-6.84-4.7-1.42-1.6-2.55-3.43-3.35-5.41-.78-2.09-1.17-4.31-1.14-6.54-.03-2.74.63-5.45,1.92-7.87,1.33-2.39,3.18-4.45,5.41-6.03,2.37-1.73,5.02-3.05,7.84-3.89,3.03-.94,6.18-1.41,9.35-1.38,3.24-.02,6.46.38,9.6,1.19,3.04.76,5.96,1.9,8.71,3.41,2.57,1.41,4.94,3.17,7.03,5.22l-9.14,10.08c-1.49-1.39-3.11-2.64-4.84-3.73-1.75-1.12-3.63-2.03-5.6-2.7-1.66-.6-3.4-.93-5.16-.97-1.23-.02-2.45.1-3.65.35-.97.21-1.89.6-2.7,1.16-.69.47-1.24,1.1-1.62,1.84-.36.75-.55,1.57-.54,2.41,0,.88.23,1.75.68,2.51.44.82,1.07,1.53,1.84,2.05,1.26.65,2.57,1.21,3.92,1.68,1.7.65,4.03,1.35,7,2.16,3.36.87,6.64,2.03,9.79,3.49,2.39,1.08,4.57,2.58,6.43,4.43,1.33,1.41,2.34,3.09,2.97,4.92.67,1.97,1,4.03.97,6.11.05,3.74-1.1,7.4-3.3,10.44-2.34,3.16-5.46,5.65-9.06,7.22-4.08,1.8-8.51,2.7-12.98,2.62v-.02Z"/>
      <path class="st0" d="M743.13,665.68v-14.38h40.31v14.38h-40.31ZM752.62,713.21v-67.91c-.05-3.78.88-7.51,2.7-10.81,1.69-3.14,4.2-5.76,7.27-7.57,3.29-1.87,7.03-2.81,10.81-2.7,2.7,0,5.38.47,7.92,1.38,2.32.85,4.47,2.09,6.35,3.68l-5.06,12.6c-1-.64-2.06-1.18-3.16-1.62-.93-.41-1.93-.63-2.95-.65-1.3-.06-2.6.2-3.79.76-.97.5-1.75,1.31-2.22,2.3-.53,1.19-.78,2.48-.73,3.79v66.7h-17.14l-.03.08.03-.03Z"/>
      <path class="st0" d="M822.56,714.4c-6.28.15-12.49-1.29-18.06-4.19-4.99-2.65-9.13-6.64-11.98-11.52-2.91-5.12-4.38-10.93-4.27-16.82-.06-4.62.75-9.21,2.41-13.52,1.51-3.96,3.79-7.58,6.7-10.65,2.91-3,6.41-5.36,10.27-6.95,4.09-1.67,8.48-2.51,12.9-2.46,4.12-.03,8.21.79,12,2.41,3.59,1.54,6.83,3.8,9.52,6.65,2.74,2.9,4.85,6.33,6.19,10.08,1.46,4.01,2.11,8.26,1.92,12.52v5.41h-51.12l-2.7-10.44h39.74l-1.92,2.14v-2.84c-.17-2.1-.9-4.12-2.11-5.84-1.24-1.7-2.86-3.09-4.73-4.06-2.01-1.03-4.23-1.55-6.49-1.51-3.11-.09-6.19.61-8.95,2.05-2.44,1.36-4.39,3.45-5.57,5.97-1.37,3.02-2.03,6.31-1.92,9.62-.1,3.48.75,6.92,2.46,9.95,1.63,2.81,4.05,5.08,6.95,6.54,3.3,1.63,6.95,2.42,10.63,2.33,2.62.03,5.22-.41,7.68-1.3,2.71-1.12,5.22-2.66,7.43-4.57l8.11,11.41c-2.32,2.07-4.9,3.82-7.68,5.22-2.76,1.38-5.66,2.44-8.65,3.16-2.86.75-5.8,1.15-8.76,1.19v.02Z"/>
      <path class="st0" d="M862.77,713.21v-63.48h16.44l.59,20.39-2.87-4.19c.95-3.26,2.54-6.31,4.68-8.95,2.09-2.61,4.71-4.74,7.68-6.27,2.82-1.51,5.97-2.29,9.17-2.27,1.33,0,2.66.11,3.97.35,1.09.19,2.17.47,3.22.84l-4.54,18.71c-1.09-.55-2.24-.98-3.43-1.27-1.39-.35-2.81-.54-4.24-.54-1.85-.02-3.69.33-5.41,1.03-1.56.67-2.97,1.64-4.14,2.87-1.18,1.28-2.09,2.78-2.7,4.41-.67,1.72-1.01,3.56-1,5.41v32.88l-17.41.11v-.03Z"/>
      <path class="st0" d="M936.68,714.4c-5.41.1-10.78-.89-15.79-2.92-4.31-1.75-8.13-4.54-11.11-8.11l10.68-9.11c2.21,2.51,4.99,4.46,8.11,5.68,2.9,1.14,5.99,1.74,9.11,1.76,1.12.02,2.24-.13,3.33-.43.96-.23,1.88-.64,2.7-1.19.7-.49,1.25-1.15,1.62-1.92.36-.77.54-1.61.54-2.46.06-1.65-.76-3.21-2.16-4.08-1.19-.66-2.44-1.2-3.73-1.62-1.68-.59-3.84-1.27-6.46-1.97-3.58-.86-7.06-2.09-10.38-3.68-2.54-1.14-4.85-2.74-6.81-4.7-1.4-1.6-2.52-3.43-3.3-5.41-.78-2.09-1.17-4.31-1.14-6.54-.03-2.74.63-5.45,1.92-7.87,1.33-2.39,3.18-4.45,5.41-6.03,2.34-1.72,4.95-3.04,7.73-3.89,3.03-.94,6.18-1.41,9.35-1.38,3.24-.02,6.46.38,9.6,1.19,3.04.76,5.96,1.9,8.71,3.41,2.57,1.41,4.94,3.17,7.03,5.22l-9.14,10.08c-1.49-1.39-3.11-2.64-4.84-3.73-1.75-1.12-3.63-2.03-5.6-2.7-1.66-.6-3.4-.93-5.16-.97-1.23-.02-2.45.1-3.65.35-.97.21-1.89.6-2.7,1.16-1.4.95-2.22,2.55-2.16,4.24,0,.88.23,1.75.68,2.51.44.82,1.07,1.53,1.84,2.05,1.26.65,2.57,1.21,3.92,1.68,1.7.65,4.06,1.35,7,2.16,3.36.87,6.64,2.03,9.79,3.49,2.39,1.08,4.57,2.58,6.43,4.43,1.34,1.41,2.36,3.09,3,4.92.65,1.97.97,4.04.95,6.11.05,3.74-1.1,7.4-3.3,10.44-2.34,3.16-5.46,5.65-9.06,7.22-4.08,1.8-8.49,2.7-12.95,2.62h0Z"/>
    </g>
  </g>
</svg>