<?xml version="1.0" encoding="UTF-8"?>
<svg id="Layer_1" xmlns="http://www.w3.org/2000/svg" version="1.1" viewBox="0 0 1024 1024">
  <!-- Generator: Adobe Illustrator 29.4.0, SVG Export Plug-In . SVG Version: 2.1.0 Build 152)  -->
  <defs>
    <style>
      .st0 {
        fill: #fff;
        stroke: #000;
        stroke-miterlimit: 10;
      }
    </style>
  </defs>
  <path class="st0" d="M564.82,526.88c35.19-3.26,79.24,26.71,78.86,76.98-.15,19.59-8.66,35-19.43,47.97,4.47,4.76,8.23,8.94,13.16,12.99,2.29-.12,3.69-.23,5.94.13,12.13,11.4,23.97,23.39,35.72,35.42,3.42,3.51,7.25,6.79,9.58,11.6-.42,1.59-.97,3.29-1.74,4.67-2.86,5.13-11.5,12.66-16.46,9.65-4.27-2.6-9.05-7.99-12.81-11.86l-13.32-13.56c-4.78-4.49-14.96-14.03-18.93-19.95-.56-.82.28-3.62.61-4.79-4.25-5.22-8.67-9.37-13.35-13.92-28.71,23.07-73.91,18.96-99.67-8.83-22.89-24.69-28.27-63.44-7.67-93.11,16.42-23.67,35.94-31.2,59.52-33.38h0ZM572.42,661.31c74.33-9.04,71-111.02.04-118.27-2.41-.25-5.73-.37-8.12-.05-17.19,1.3-33.28,8.72-45.08,25.19-16.15,22.55-13.47,54.34,4.58,73.72,14.11,15.15,30.47,20.2,48.57,19.41h0Z"/>
  <path class="st0" d="M562.15,562.16c21.26-1.24,41.51,9.27,47.92,37.1,2.43,11.12,2.73,23.57-1.34,34.17-1.76,4.59-8.31,11.07-8.04,1.23.26-2.52,1.9-5.11,2.52-7.35,4.27-15.45,1.32-33.88-8.47-44.97-4.87-5.42-9.22-9.13-15.58-11.47-17.2-6.5-35.16.73-48.2,15.82-3.07,3.56-7.08,14.06-11.9,11.83-1.95-2.57.34-7.5,1.85-9.7,11-16.02,24.83-24.3,41.24-26.65h.02Z"/>
  <path class="st0" d="M564.96,573.45c9.42-.15,19.93,3.77,26.61,12.62,13.86,18.37,8.36,46.97-5.47,62.61-2.55,2.88-4.66,4.01-7.28.4-.34-.47-.45-1.67-.22-2.28,1.18-2.22,3.05-3.92,4.51-5.92,9.57-13.16,13.82-32.19,5-47.85-13.59-20.95-39.15-15-51.74,3.95-4.12,6.19-9.73,16.23-16.89,16.03-.53-.02-.81-.87-1.02-1.36-.22-5.39,5.43-8.2,7.62-11.52,11.62-17.67,20.69-25.14,38.89-26.68h0Z"/>
  <path class="st0" d="M561.08,585.11c9.12-.38,18.52,1.53,23.38,12.52,3.22,7.3,3.72,15.69,1.93,23.68-2.98,13.34-10.94,24.1-20.27,30.83-2.22,1.6-5.24,2.13-6.28-1.61.04-.94.47-2.27,1.05-2.72,6.52-5.05,12.08-11.07,16.1-19.66,2.97-6.34,4.51-15.73,2.92-23.25-.99-4.54-3.6-8.78-6.88-10.81-15.74-9.67-26.09,6.67-35.53,20.27-1.87,2.7-12.02,12.9-15,9.92-5.23-5.22,6.98-9.81,8.77-12.96,10.29-12.75,14.2-24.23,29.8-26.25h0v.02Z"/>
  <path class="st0" d="M560.62,596.64c4.58-.51,10.54.69,12.85,6.27,4.89,12.06-1.07,25.21-7.82,33.76-2.65,3.36-16.52,19.83-20.1,11.62-.13-1.09.22-2.68.94-3.18,6.73-4.67,13.3-10.27,17.81-18.37,2.08-3.73,4.71-10.8,4.07-15.5-1.48-12.78-8.08-8.54-12.97-2.07-6.78,8.99-12.44,18.69-21.45,24.56-4.1,2.67-6.58,2.82-8.62-2.82,5.22-3.29,12.15-8.54,16.23-13.81,7.92-10.22,7.82-15.7,19.07-20.47h-.02Z"/>
  <path class="st0" d="M565.37,549.83c7.18-.33,13.94.61,20.82,3.31,12.51,4.92,24.77,15.19,30.83,30.37,1.37,3.43,2.98,8.73,1.9,12.52-.34,1.18-.66,1.67-1.52,2.23-3.54.27-5.92-10.15-7.34-13.5-3.51-8.29-8.07-12.96-14.12-18-19.48-16.43-44.34-12.36-62.46,3.59-1.39,1.22-4.15,1.67-5-.72.26-5.16,6.82-9.29,9.98-11.38,8.72-5.77,17.27-7.52,26.9-8.43h0Z"/>
  <path class="st0" d="M560.52,608.92c7.02,1.52,2.7,9.17.2,13.53-5.83,10.21-13.49,16.63-22.23,22.08-1.37.18-3.2-1.65-3.47-3.46.97-4.65,7.81-7.3,10.6-9.82,6.62-6.01,8.91-15.03,14.91-22.33h0Z"/>
  <path class="st0" d="M514.11,376.25c5.3-.54,10.39.44,15.54,1.87,31.24,8.69,37.46,52.75,20.67,83.26-2.42,4.4-12.41,15.52-9.41,20.32,3.87,6.17,14.49,8.8,20.26,11.01,19.42,7.42,41.6,13.21,53.11,36.75-13.56-6.8-24.77-11.72-39.41-12.69-33.25-2.2-61.92,11.27-82.46,45.67-9.02,16.86-10.23,30.93-9.47,50.82-23.79-7.44-41.15-18.1-60.49-37.66-.07-15.04-1.77-34.97,1.52-49.27.92-3.99,3.89-9.19,6.67-11.72,12.54-11.41,30.16-16.42,44.67-22.86,5.38-2.39,13.23-4.11,17.15-9.69,3.76-5.35-3.42-13.68-6.08-17.3-12.77-17.32-17.37-49.8-5.22-69.34,8.09-13.01,20.56-17.48,32.96-19.18h-.02Z"/>
  <path class="st0" d="M507.53,333.45c43.74-2.08,87.15,12.1,121.64,47.82,22.93,23.76,39.63,57.12,42.66,95.16,2.65,33.32-6.67,70.74-23.49,96.49-2.82-7.38-5.32-14.32-9-21.1,13.22-24.53,18.41-59.04,13.03-87.89-6.58-35.32-25.65-63.74-49.51-82.66-37.58-29.67-83.78-36.12-126.6-24.09-49.74,13.97-99.75,67.07-96.99,137.16.3,7.57,1.45,14.32,2.8,21.68,4.12,18.55,8.87,29.1,18.06,44.16,18.46,30.26,54.56,57.89,84.64,61.97,2.16,8.85,7.22,20.03,11.93,27,16.35,24.17,35.17,33.22,58.97,36.2-6.23,7.57-13.64,15.19-20.13,22.55-4.6,4.97-9.12,10.05-13.93,14.7-5.44,5.27-10.6-1.13-14.63-5.56l-50.96-57.14-30.02-34.25c-30.01-34.85-60.98-72.69-63.8-127.39-2.07-35.6,6.99-69.24,25.52-96.09,31.01-44.94,73.99-64.57,119.8-68.72l.02-.02Z"/>
  <path class="st0" d="M515.02,788.45c8.12-.8,12.68.31,19.3,6.57v-5.75l13.07-.06.08,33.34c.1,11.54,1.93,27.66-5.67,36.02-7.01,7.64-17.33,8.52-26.09,8.08-7.54-.38-21.77-5.99-20.81-18.47,4.02-.4,9.28-.23,13.39-.19,2.52,5.04,6.1,7.66,10.85,7.91,4.11.22,8.99-1.32,12.05-4.95,3.24-3.85,3.03-9.42,3.04-14.59-3.87,3.32-7.08,5.07-11.83,6.01-11.2,2.42-27.77-6.09-28.94-22.46-1.42-19.88,7.12-29.35,21.57-31.47h0ZM522.87,830.44c19.85-6.37,11.94-33.14-4.11-30.4-4.07.87-7.52,2.58-9.98,7.08-3.82,6.97-1.75,16.44,3.73,20.85,3.35,2.69,6.62,2.59,10.37,2.47h0Z"/>
  <path class="st0" d="M618.46,779.42h20.61c2.76,11.46,6.14,22.87,9.05,34.28.72,2.83,1.62,6.69,2.55,9.34l1.05,4.3,1.35-4.72c3.59-14.39,7.77-28.82,11.28-43.2h20.66v68.92l-12.6.02c0-18.22.26-37.44-.03-55.57-4.94,17.43-9.57,37.74-14.13,55.57h-13.12l-8.79-35.06c-1.62-6.42-3.42-14.3-5.28-20.42l-.03,55.47h-12.57v-68.93h0Z"/>
  <path class="st0" d="M606.26,797.43c13.88,17.1,5.43,39.03-11.47,45.07-8.68,3.11-18.39,2.22-26.31-3.59-19.65-14.42-12.72-43.39,7.6-49.63,9.56-2.94,18.28-1.53,26.59,4.76,1.47,1.24,2.22,1.93,3.57,3.4h0ZM587.89,832.06c18.39-5.87,13.39-34.01-5.22-32.04-1.5.43-2.76.78-4.22,1.5-9.39,4.64-9.68,22.17-1.15,28.32,3.64,2.62,6.58,2.48,10.59,2.22h0Z"/>
  <path class="st0" d="M342.03,788.46c8-.8,16.84.64,22.91,8.1,5.18,6.37,5.69,14.17,5.73,22.9-12.77-.24-25.77-.03-38.56.06,1.71,9.62,7.24,13.66,14.69,13.08,4.93-.38,7.32-2.35,10.48-6.94l5.4.08c1.81.03,4.88-.06,6.51.49,1.26,1.47.12,3.56-.72,5-8.42,14.93-31.15,16.11-42.09,5.89-8.23-7.69-11.16-26.3-4.19-36.68,5.49-8.2,11.83-10.79,19.84-11.98h0ZM346.16,810.34c3.77.03,7.73.12,11.49-.03-3.02-9.07-5.6-10.8-13.18-11.24-6.19,1.14-10.07,3.09-12.32,11.28h14.01Z"/>
  <path class="st0" d="M700.86,779.52c4.79-.31,10.67-.1,15.53-.1,4.55,6.88,9.77,15.56,14.12,22.68,1.25-2.49,3.41-5.82,4.91-8.27l8.81-14.42h15.72c-7.04,10.37-14.59,22.72-21.47,33.45,7.47,11.73,15.82,23.86,23.51,35.45l-3.83.02h-12.5c-4.17-7.12-10.96-17.27-15.52-24.2-4.5,7.62-10.67,16.68-15.51,24.21h-16.17c2.31-3.89,5.51-8.52,8-12.31l15.45-23.63c-4.5-7.81-10.91-16.37-15.62-24.17-1.17-1.93-4.7-6.88-5.43-8.72h0v.02Z"/>
  <path class="st0" d="M262.06,766.79l62.57.03.04,12.96h-23.52c.33,10.62.25,20.97.15,31.57.07,9.77-.52,20.67.15,30.26l-15.57-.04v-61.77l-23.79-.02c-.14-4.31-.07-8.67-.04-12.98h0Z"/>
  <path class="st0" d="M395.12,788.44c7.47-.71,18.5-.31,23.37,8.37,1.35,2.41,1.81,5.02,2.37,7.83-4.32,0-8.57.04-12.89.15-7.12-12.83-25.74-1.42-11.1,3.54,6.51,2.2,24.37,2.17,25.11,14.18,1.02,16.88-10.97,19.53-20.88,21.14-11.83.57-21.42-1.47-25.32-17.38,4.29-.22,8.72-.08,13.02-.03,2.72,6.32,8.12,6.94,13.27,6.67,2.83-.15,7.13-1.97,6.35-6.57-.46-2.7-2.64-3.59-4.53-4.15-5.08-1.23-10.02-1.7-15.11-3.12-5.57-1.55-10.86-5.92-12.07-13.5-.38-2.37.62-5.92,1.82-7.73,4.12-6.22,10.58-8.41,16.58-9.39h0l.02-.02Z"/>
  <path class="st0" d="M448.09,773.79l.38.45c.56,2.88.28,11.86.23,15.16,4.33-.13,8.68-.13,13.02-.15-.2,2.57-.15,8.23-.17,11.02l-12.86.1c.06,7.36-.72,18.42.2,25.5.95,7.37,8.5,4.81,12.62,3.11.02,4.29.02,8.08.27,12.37-2.62.65-5.13,1.17-7.77,1.68l-1.49.03c-17.52.11-18.29-9.33-17.58-28.53.16-4.42.13-9.62.19-14.12-3.27-.16-6.78-.1-10.08-.1l-.07-10.85c3.24-.18,6.87-.13,10.14-.18-.2-4.59-.2-9.73-.27-14.37,5.25.15,8.16-.25,13.26-1.12h0v.02Z"/>
  <path class="st0" d="M471.06,789.32c2.82.11,11.16-.53,13.09.5.62,2.75.4,15.17.4,18.77v33.07l-13.17-.18c-.4-5.69-.35-13.2-.37-19.02l.05-33.15h0Z"/>
  <path class="st0" d="M475.03,765.05c3.71-.12,8.8.04,10.77,4.68,2.53,5.97-1.67,9.2-5.07,11.25-6.32.58-9.14.3-11.66-7.62,1.19-5.42,1.96-6.12,5.96-8.32h0Z"/>
</svg>